<svg width="550" height="468" viewBox="0 0 550 468" fill="none" xmlns="http://www.w3.org/2000/svg">
<path opacity="0.58" d="M275 467.849C426.878 467.849 550 396.733 550 309.008C550 221.283 426.878 150.168 275 150.168C123.122 150.168 0 221.283 0 309.008C0 396.733 123.122 467.849 275 467.849Z" fill="#00987E"/>
<path d="M415.751 266L539.086 337.242L363.335 438.75L240 367.508L415.751 266Z" fill="white"/>
<path d="M276.254 366.985L365.405 418.482L360.073 421.556L270.923 370.06L276.254 366.985Z" fill="#1D1D1B"/>
<path d="M290.848 358.556L379.998 410.052L376.716 411.935L287.586 360.459L290.848 358.556Z" fill="#1D1D1B"/>
<path d="M299.671 353.473L388.822 404.949L385.539 406.852L296.388 355.355L299.671 353.473Z" fill="#1D1D1B"/>
<path d="M308.473 348.369L397.624 399.866L394.341 401.748L305.211 350.273L308.473 348.369Z" fill="#1D1D1B"/>
<path d="M326.119 338.183L415.249 389.679L411.967 391.583L322.837 340.086L326.119 338.183Z" fill="#1D1D1B"/>
<path d="M334.921 333.1L424.072 384.597L420.79 386.479L331.639 335.004L334.921 333.1Z" fill="#1D1D1B"/>
<path d="M398.753 359.79L432.874 379.493L429.592 381.396L395.47 361.672L398.753 359.79Z" fill="#1D1D1B"/>
<path d="M352.547 322.914L441.697 374.41L438.415 376.314L349.264 324.817L352.547 322.914Z" fill="#1D1D1B"/>
<path d="M361.37 317.831L450.5 369.328L447.238 371.21L358.087 319.714L361.37 317.831Z" fill="#1D1D1B"/>
<path d="M391.059 324.796L459.323 364.224L456.04 366.127L387.776 326.7L391.059 324.796Z" fill="#1D1D1B"/>
<path d="M446.004 325.989L485.771 348.955L482.488 350.858L442.722 327.892L446.004 325.989Z" fill="#1D1D1B"/>
<path d="M454.827 320.906L494.573 343.872L491.291 345.755L451.545 322.788L454.827 320.906Z" fill="#1D1D1B"/>
<path d="M438.248 314.38C428.714 319.881 413.2 319.881 403.666 314.38C394.132 308.879 394.132 299.906 403.666 294.405C413.2 288.904 428.714 288.904 438.248 294.405C447.782 299.906 447.782 308.879 438.248 314.38ZM404.837 295.074C395.951 300.219 395.951 308.565 404.837 313.711C413.723 318.856 428.191 318.856 437.098 313.711C446.004 308.565 445.983 300.219 437.098 295.074C428.212 289.928 413.744 289.928 404.837 295.074Z" fill="#1D71B8"/>
<path d="M435.718 312.916C427.585 317.622 414.329 317.622 406.175 312.916C398.042 308.21 398.042 300.554 406.175 295.848C414.308 291.142 427.564 291.142 435.718 295.848C443.851 300.554 443.851 308.21 435.718 312.916ZM406.97 296.308C399.255 300.763 399.255 308.021 406.97 312.476C414.684 316.932 427.229 316.932 434.944 312.476C442.659 308.021 442.659 300.763 434.944 296.308C427.229 291.853 414.684 291.853 406.97 296.308Z" fill="#1D71B8"/>
<path d="M429.738 309.465C424.887 312.267 417.005 312.267 412.155 309.465C407.304 306.662 407.304 302.102 412.155 299.299C417.005 296.496 424.887 296.496 429.738 299.299C434.589 302.102 434.589 306.662 429.738 309.465ZM412.928 299.759C408.517 302.311 408.517 306.473 412.928 309.025C417.34 311.577 424.532 311.577 428.965 309.025C433.376 306.473 433.376 302.311 428.965 299.759C424.553 297.207 417.361 297.207 412.928 299.759Z" fill="#1D71B8"/>
<path d="M414.413 297.187C414.413 297.187 414.308 297.187 414.245 297.187C414.183 297.187 414.141 297.166 414.078 297.145L411.088 296.099L412.761 297.668C412.447 297.793 410.377 295.869 410.377 295.869C410.524 295.722 410.587 295.722 410.649 295.722C410.712 295.722 410.775 295.743 410.858 295.785L413.785 296.81L412.113 295.241C412.426 295.137 414.496 297.04 414.496 297.04C414.496 297.145 414.454 297.166 414.413 297.166V297.187Z" fill="#1D71B8"/>
<path d="M416.253 296.768C416.085 296.81 415.939 296.81 415.793 296.831C415.646 296.831 415.5 296.831 415.354 296.789C415.228 296.747 415.103 296.705 414.977 296.622C414.873 296.559 414.768 296.454 414.705 296.329L414.099 295.367C414.015 295.241 413.995 295.137 413.995 295.032C413.995 294.928 414.036 294.844 414.099 294.781C414.162 294.697 414.266 294.635 414.392 294.593C414.517 294.53 414.664 294.488 414.81 294.467C414.977 294.426 415.124 294.426 415.27 294.405C415.416 294.405 415.563 294.405 415.709 294.446C415.834 294.488 415.96 294.53 416.064 294.593C416.169 294.677 416.273 294.76 416.336 294.886L416.943 295.848C417.026 295.973 417.047 296.078 417.047 296.183C417.047 296.287 417.005 296.371 416.943 296.434C416.88 296.517 416.775 296.58 416.65 296.622C416.524 296.684 416.378 296.705 416.232 296.747L416.253 296.768ZM416.002 294.969C415.897 294.802 415.751 294.697 415.584 294.656C415.395 294.614 415.186 294.614 414.956 294.656C414.705 294.697 414.559 294.781 414.454 294.886C414.371 294.99 414.371 295.116 414.454 295.283L415.061 296.245C415.165 296.413 415.312 296.517 415.479 296.559C415.667 296.601 415.876 296.601 416.127 296.559C416.357 296.517 416.524 296.434 416.629 296.329C416.713 296.224 416.713 296.099 416.629 295.932L416.023 294.969H416.002Z" fill="#1D71B8"/>
<path d="M419.284 293.882C419.347 294.091 418.385 294.174 418.385 294.174L418.95 296.287C418.573 296.329 418.009 294.216 418.009 294.216L417.047 294.3C416.984 294.091 419.263 293.903 419.263 293.903L419.284 293.882Z" fill="#1D71B8"/>
<path d="M419.974 296.266C419.974 296.266 419.87 296.266 419.828 296.245C419.765 296.162 421.04 293.903 421.04 293.903C421.312 293.819 421.375 293.84 421.417 293.84C421.5 293.903 422.629 296.162 422.629 296.162C422.504 296.266 422.462 296.266 422.399 296.266C422.337 296.266 422.274 296.266 422.253 296.203L422.002 295.68H420.413L420.141 296.182C420.141 296.182 420.016 296.245 419.995 296.245L419.974 296.266ZM421.898 295.534L421.25 294.195L420.518 295.534H421.919H421.898Z" fill="#1D71B8"/>
<path d="M423.779 294.049C423.779 294.049 423.863 293.986 423.947 293.986L424.95 294.112C425.117 294.112 425.264 294.154 425.41 294.195C425.557 294.237 425.661 294.279 425.745 294.342C425.828 294.405 425.891 294.488 425.933 294.572C425.975 294.656 425.954 294.76 425.933 294.886C425.891 294.99 425.828 295.074 425.766 295.137C425.682 295.199 425.598 295.262 425.515 295.304C425.41 295.346 425.306 295.367 425.18 295.388C425.055 295.388 424.95 295.388 424.804 295.388L425.306 296.454C425.159 296.58 425.117 296.58 425.055 296.58C424.908 296.433 424.407 295.367 424.407 295.367L423.696 295.283L423.319 296.287C422.943 296.245 423.8 294.028 423.8 294.028L423.779 294.049ZM424.093 294.216L423.738 295.116L424.49 295.22C424.741 295.262 424.95 295.241 425.138 295.199C425.327 295.158 425.452 295.032 425.515 294.886C425.577 294.718 425.536 294.593 425.41 294.509C425.285 294.426 425.097 294.363 424.846 294.321L424.072 294.216H424.093Z" fill="#1D71B8"/>
<path d="M427.104 296.078L426.957 294.572C427.145 294.467 427.187 294.467 427.229 294.467C427.313 294.572 427.438 295.911 427.438 295.911L429.257 295.053C429.257 295.053 429.383 295.011 429.445 295.032C429.508 295.22 427.48 296.141 427.48 296.141C427.459 296.162 426.853 296.935 426.853 296.935C426.497 296.852 427.104 296.078 427.104 296.078Z" fill="#1D71B8"/>
<path d="M431.62 295.931C431.62 295.931 431.745 295.89 431.829 295.931L432.644 296.308C432.77 296.371 432.874 296.433 432.958 296.517C433.041 296.601 433.104 296.664 433.125 296.747C433.125 296.831 433.125 296.915 433.083 296.998C433.021 297.082 432.937 297.186 432.791 297.291C432.623 297.417 432.477 297.479 432.331 297.542C432.184 297.584 432.038 297.605 431.892 297.626C431.745 297.626 431.599 297.626 431.473 297.584C431.327 297.542 431.202 297.5 431.076 297.437L430.428 297.124L429.445 297.814C429.153 297.668 431.641 295.931 431.641 295.931H431.62ZM431.787 296.162L430.637 296.977L431.285 297.291C431.473 297.375 431.682 297.417 431.892 297.417C432.101 297.417 432.289 297.333 432.477 297.207C432.707 297.04 432.791 296.915 432.77 296.81C432.77 296.684 432.644 296.58 432.435 296.496L431.787 296.182V296.162Z" fill="#1D71B8"/>
<path d="M435.634 298.274C435.864 298.441 433.627 299.487 433.627 299.487C433.439 299.571 433.271 299.613 433.125 299.655C432.958 299.676 432.811 299.696 432.665 299.655C432.519 299.655 432.393 299.613 432.268 299.55C432.142 299.508 432.038 299.445 431.912 299.362C431.808 299.278 431.724 299.215 431.662 299.132C431.599 299.048 431.578 298.964 431.599 298.881C431.599 298.797 431.662 298.713 431.745 298.63C431.829 298.546 431.954 298.462 432.142 298.379L434.38 297.354C434.61 297.521 432.372 298.546 432.372 298.546C432.142 298.651 432.017 298.755 431.996 298.881C431.975 299.006 432.038 299.111 432.205 299.236C432.372 299.362 432.54 299.425 432.749 299.425C432.958 299.425 433.167 299.383 433.397 299.278L435.634 298.253V298.274Z" fill="#1D71B8"/>
<path d="M436.617 299.132C436.826 299.194 437.244 299.676 437.244 299.676C437.307 299.759 437.369 299.843 437.411 299.927C437.453 300.01 437.474 300.073 437.453 300.157C437.453 300.24 437.39 300.303 437.307 300.366C437.223 300.429 437.077 300.491 436.909 300.533C436.7 300.596 436.491 300.617 436.303 300.617C436.115 300.617 435.969 300.575 435.843 300.512C435.843 300.575 435.843 300.617 435.843 300.68C435.843 300.742 435.801 300.784 435.759 300.826C435.718 300.868 435.655 300.91 435.571 300.951C435.488 300.993 435.383 301.035 435.258 301.077C434.965 301.161 434.798 301.202 434.63 301.202C434.463 301.202 434.317 301.202 434.191 301.182C434.066 301.161 433.941 301.098 433.857 301.056C433.752 300.993 433.669 300.931 433.606 300.847L433.125 300.282C433.167 300.157 436.679 299.132 436.679 299.132H436.617ZM433.857 300.721C433.961 300.847 434.129 300.931 434.296 300.972C434.484 301.014 434.714 300.972 434.965 300.91C435.32 300.805 435.467 300.721 435.53 300.617C435.571 300.512 435.529 300.387 435.425 300.261L435.049 299.822L433.481 300.282L433.857 300.721ZM435.341 299.738L435.676 300.136C435.801 300.261 435.927 300.366 436.094 300.387C436.24 300.429 436.449 300.408 436.7 300.345C436.826 300.303 436.909 300.282 436.972 300.219C437.035 300.178 437.077 300.136 437.077 300.073C437.077 300.031 437.077 299.968 437.077 299.906C437.056 299.843 437.014 299.801 436.951 299.738L436.617 299.362L435.362 299.738H435.341Z" fill="#1D71B8"/>
<path d="M434.254 301.767C434.359 301.642 438.122 301.035 438.122 301.035C438.227 301.244 434.651 301.83 434.651 301.83L435.111 302.729C434.777 302.792 434.275 301.767 434.275 301.767H434.254Z" fill="#1D71B8"/>
<path d="M438.812 302.708C438.875 302.918 435.007 303.252 435.007 303.252C434.944 303.043 438.812 302.708 438.812 302.708Z" fill="#1D71B8"/>
<path d="M438.143 304.8C438.143 304.8 438.268 304.8 438.352 304.779C438.436 304.779 438.498 304.737 438.582 304.716C438.645 304.675 438.707 304.633 438.749 304.57C438.791 304.507 438.833 304.424 438.812 304.34C438.812 304.194 438.728 304.068 438.603 303.984C438.457 303.901 438.248 303.859 437.934 303.859H436.157C435.864 303.859 435.634 303.922 435.488 304.005C435.341 304.089 435.279 304.214 435.279 304.382C435.279 304.486 435.3 304.57 435.362 304.612C435.404 304.675 435.467 304.716 435.55 304.737C435.613 304.758 435.697 304.779 435.78 304.8C435.864 304.8 435.948 304.8 436.01 304.821C436.115 304.821 436.157 304.863 436.157 304.926C436.073 305.03 436.01 305.03 435.927 305.03C435.801 305.03 435.676 305.03 435.55 304.988C435.425 304.967 435.32 304.905 435.237 304.863C435.153 304.8 435.07 304.737 435.028 304.654C434.965 304.57 434.944 304.465 434.944 304.361C434.944 304.277 434.944 304.173 435.007 304.089C435.049 304.005 435.111 303.943 435.216 303.88C435.32 303.817 435.446 303.775 435.592 303.733C435.739 303.692 435.948 303.671 436.157 303.671H437.934C438.164 303.671 438.352 303.671 438.498 303.712C438.645 303.754 438.77 303.796 438.875 303.859C438.979 303.922 439.042 304.005 439.084 304.068C439.126 304.152 439.147 304.235 439.147 304.34C439.147 304.445 439.126 304.549 439.084 304.633C439.042 304.716 438.958 304.779 438.875 304.842C438.791 304.905 438.687 304.947 438.561 304.967C438.457 304.988 438.331 305.009 438.185 305.009C438.08 305.009 438.038 305.009 437.997 304.988C437.997 304.8 438.059 304.8 438.101 304.8H438.143Z" fill="#1D71B8"/>
<path d="M428.254 311.326C428.254 311.326 428.358 311.305 428.4 311.326C428.463 311.326 428.525 311.326 428.567 311.368L431.599 312.33L429.822 310.803C430.135 310.678 432.31 312.56 432.31 312.56C432.184 312.707 432.121 312.727 432.059 312.707C431.996 312.707 431.933 312.686 431.85 312.665L428.881 311.703L430.658 313.229C430.344 313.355 428.17 311.472 428.17 311.472C428.17 311.368 428.212 311.347 428.233 311.347L428.254 311.326Z" fill="#1D71B8"/>
<path d="M426.518 311.807C426.665 311.765 426.811 311.744 426.978 311.744C427.125 311.744 427.271 311.744 427.396 311.765C427.522 311.786 427.647 311.849 427.752 311.912C427.856 311.974 427.961 312.079 428.045 312.205L428.672 313.188C428.755 313.313 428.797 313.418 428.797 313.522C428.797 313.627 428.755 313.711 428.693 313.794C428.63 313.878 428.546 313.941 428.421 314.003C428.295 314.066 428.17 314.108 428.024 314.15C427.877 314.192 427.731 314.213 427.564 314.213C427.417 314.213 427.271 314.213 427.146 314.192C427.02 314.171 426.895 314.108 426.79 314.045C426.686 313.982 426.581 313.878 426.497 313.752L425.87 312.769C425.787 312.644 425.745 312.539 425.745 312.435C425.745 312.33 425.766 312.246 425.828 312.163C425.891 312.079 425.975 312.016 426.1 311.954C426.226 311.891 426.351 311.849 426.497 311.807H426.518ZM426.853 313.648C426.957 313.815 427.104 313.92 427.292 313.962C427.48 314.003 427.689 314.003 427.919 313.962C428.149 313.899 428.316 313.815 428.379 313.711C428.463 313.606 428.442 313.46 428.337 313.292L427.71 312.309C427.606 312.142 427.459 312.037 427.271 311.995C427.083 311.954 426.874 311.954 426.644 311.995C426.414 312.058 426.247 312.142 426.184 312.246C426.1 312.351 426.121 312.497 426.226 312.665L426.853 313.648Z" fill="#1D71B8"/>
<path d="M423.654 314.882C423.591 314.673 424.511 314.547 424.511 314.547L423.884 312.393C424.239 312.351 424.867 314.505 424.867 314.505L425.787 314.38C425.849 314.589 423.654 314.882 423.654 314.882Z" fill="#1D71B8"/>
<path d="M422.88 312.435C423.089 312.539 421.919 314.924 421.919 314.924C421.48 314.924 420.33 312.644 420.33 312.644C420.455 312.539 420.497 312.518 420.539 312.518C420.601 312.518 420.664 312.518 420.685 312.581L420.936 313.104L422.483 313.062L422.734 312.518C422.734 312.518 422.839 312.456 422.88 312.456V312.435ZM421.02 313.271L421.689 314.631L422.379 313.229L421.02 313.271Z" fill="#1D71B8"/>
<path d="M419.242 314.903C419.242 314.903 419.18 314.986 419.075 314.966L418.113 314.882C417.946 314.882 417.8 314.84 417.674 314.819C417.528 314.777 417.423 314.735 417.34 314.673C417.256 314.61 417.193 314.547 417.152 314.443C417.11 314.359 417.131 314.233 417.152 314.108C417.193 314.003 417.235 313.92 417.319 313.836C417.382 313.752 417.465 313.711 417.57 313.648C417.653 313.606 417.758 313.564 417.883 313.543C418.009 313.543 418.113 313.501 418.239 313.501L417.737 312.435C417.883 312.288 417.925 312.288 417.967 312.288C418.113 312.414 418.615 313.501 418.615 313.501L419.305 313.564L419.661 312.518C420.016 312.539 419.242 314.861 419.242 314.861V314.903ZM418.929 314.756L419.242 313.794L418.511 313.731C418.26 313.731 418.051 313.731 417.883 313.794C417.716 313.857 417.591 313.982 417.528 314.15C417.465 314.317 417.507 314.443 417.632 314.526C417.758 314.61 417.946 314.652 418.197 314.673L418.929 314.735V314.756Z" fill="#1D71B8"/>
<path d="M415.96 312.999L416.148 314.526C415.793 314.547 415.646 313.167 415.646 313.167L413.89 314.171C413.89 314.171 413.765 314.213 413.702 314.213C413.639 314.024 415.584 312.937 415.584 312.937C415.604 312.916 416.169 312.079 416.169 312.079C416.503 312.142 415.96 312.978 415.96 312.978V312.999Z" fill="#1D71B8"/>
<path d="M411.486 313.501C411.486 313.501 411.36 313.543 411.277 313.501L410.44 313.188C410.315 313.146 410.21 313.083 410.127 313.02C410.043 312.958 409.98 312.874 409.959 312.811C409.938 312.727 409.959 312.644 409.98 312.539C410.022 312.435 410.127 312.33 410.252 312.225C410.419 312.079 410.566 311.995 410.691 311.933C410.837 311.87 410.984 311.828 411.109 311.828C411.256 311.828 411.402 311.828 411.527 311.828C411.674 311.849 411.799 311.891 411.925 311.933L412.573 312.184L413.514 311.41C413.806 311.514 411.444 313.501 411.444 313.501H411.486ZM411.318 313.271L412.426 312.351L411.778 312.1C411.569 312.016 411.381 311.995 411.172 312.016C410.984 312.037 410.775 312.142 410.607 312.288C410.377 312.476 410.315 312.602 410.336 312.727C410.357 312.832 410.482 312.937 410.67 313.02L411.318 313.271Z" fill="#1D71B8"/>
<path d="M407.45 311.598C407.199 311.452 409.353 310.197 409.353 310.197C409.52 310.092 409.688 310.029 409.834 309.987C410.001 309.946 410.147 309.925 410.294 309.925C410.44 309.925 410.587 309.925 410.712 309.987C410.837 310.029 410.963 310.071 411.067 310.134C411.172 310.197 411.276 310.259 411.339 310.343C411.402 310.427 411.444 310.489 411.444 310.594C411.444 310.678 411.402 310.761 411.339 310.866C411.256 310.95 411.151 311.054 410.984 311.159L408.83 312.414C408.579 312.267 410.733 311.012 410.733 311.012C410.963 310.887 411.067 310.761 411.088 310.636C411.088 310.51 411.026 310.406 410.837 310.301C410.67 310.197 410.482 310.155 410.273 310.155C410.064 310.155 409.855 310.238 409.625 310.364L407.471 311.619L407.45 311.598Z" fill="#1D71B8"/>
<path d="M406.321 310.824C406.112 310.803 405.61 310.364 405.61 310.364C405.527 310.28 405.464 310.217 405.401 310.155C405.339 310.071 405.318 310.008 405.339 309.925C405.339 309.841 405.38 309.778 405.464 309.695C405.548 309.611 405.673 309.548 405.84 309.485C406.05 309.402 406.238 309.339 406.426 309.339C406.614 309.339 406.781 309.339 406.907 309.381C406.907 309.318 406.907 309.276 406.907 309.213C406.907 309.172 406.949 309.109 406.969 309.067C407.011 309.025 407.074 308.962 407.158 308.921C407.241 308.858 407.346 308.816 407.471 308.774C407.743 308.67 407.931 308.607 408.098 308.586C408.266 308.565 408.412 308.544 408.538 308.586C408.663 308.586 408.788 308.628 408.893 308.67C408.998 308.711 409.102 308.774 409.186 308.858L409.75 309.339C409.708 309.464 406.342 310.845 406.342 310.845L406.321 310.824ZM407.513 310.092L407.116 309.757C406.969 309.632 406.823 309.569 406.677 309.548C406.509 309.548 406.321 309.548 406.07 309.674C405.966 309.715 405.882 309.778 405.82 309.82C405.757 309.862 405.736 309.925 405.736 309.966C405.736 310.008 405.736 310.071 405.778 310.113C405.82 310.155 405.861 310.217 405.924 310.28L406.3 310.615L407.513 310.113V310.092ZM408.893 308.983C408.768 308.879 408.6 308.795 408.412 308.795C408.224 308.795 407.994 308.816 407.743 308.921C407.409 309.067 407.262 309.172 407.22 309.276C407.199 309.381 407.22 309.506 407.367 309.611L407.806 309.987L409.332 309.36L408.893 308.983Z" fill="#1D71B8"/>
<path d="M408.329 307.979C408.245 308.105 404.544 309.151 404.544 309.151C404.398 308.963 407.91 307.979 407.91 307.979L407.283 307.143C407.618 307.059 408.308 307.979 408.308 307.979H408.329Z" fill="#1D71B8"/>
<path d="M403.52 307.603C403.415 307.394 407.283 306.62 407.283 306.62C407.388 306.829 403.52 307.603 403.52 307.603Z" fill="#1D71B8"/>
<path d="M403.75 305.553C403.75 305.553 403.624 305.574 403.541 305.595C403.457 305.595 403.394 305.637 403.332 305.679C403.269 305.72 403.227 305.762 403.185 305.825C403.143 305.888 403.143 305.971 403.185 306.055C403.227 306.202 403.332 306.306 403.499 306.369C403.666 306.432 403.896 306.432 404.189 306.411L406.008 306.181C406.321 306.139 406.53 306.076 406.656 305.971C406.781 305.867 406.823 305.741 406.781 305.595C406.76 305.49 406.719 305.428 406.656 305.386C406.593 305.344 406.53 305.302 406.447 305.281C406.363 305.26 406.28 305.26 406.196 305.26C406.112 305.26 406.029 305.26 405.966 305.26C405.861 305.26 405.799 305.239 405.778 305.177C405.84 305.072 405.903 305.051 405.987 305.051C406.112 305.051 406.259 305.051 406.384 305.051C406.51 305.051 406.635 305.093 406.739 305.135C406.844 305.177 406.928 305.239 407.011 305.323C407.074 305.407 407.137 305.49 407.158 305.595C407.179 305.679 407.179 305.762 407.158 305.867C407.137 305.951 407.074 306.034 406.99 306.097C406.907 306.16 406.781 306.222 406.635 306.285C406.489 306.348 406.3 306.39 406.07 306.411L404.251 306.641C404.021 306.662 403.833 306.683 403.666 306.641C403.499 306.641 403.352 306.599 403.248 306.536C403.143 306.494 403.039 306.432 402.976 306.348C402.913 306.264 402.872 306.181 402.851 306.097C402.83 305.992 402.83 305.888 402.851 305.804C402.892 305.72 402.934 305.637 403.018 305.574C403.102 305.511 403.185 305.449 403.29 305.407C403.394 305.365 403.52 305.323 403.666 305.323C403.771 305.323 403.833 305.323 403.854 305.323C403.854 305.49 403.854 305.511 403.792 305.511L403.75 305.553Z" fill="#1D71B8"/>
<path d="M428.191 308.565C424.198 310.866 417.695 310.866 413.702 308.565C409.708 306.264 409.708 302.499 413.702 300.198C417.695 297.898 424.198 297.898 428.191 300.198C432.184 302.499 432.184 306.264 428.191 308.565ZM414.496 300.659C410.942 302.708 410.942 306.076 414.496 308.126C418.051 310.176 423.863 310.176 427.417 308.126C430.972 306.076 430.972 302.708 427.417 300.659C423.863 298.609 418.051 298.609 414.496 300.659Z" fill="#1D71B8"/>
<path d="M408.998 300.094C408.998 300.094 409.102 300.094 409.165 300.157C409.228 300.198 409.269 300.261 409.248 300.303C409.248 300.366 409.207 300.408 409.144 300.449C408.998 300.491 408.935 300.512 408.872 300.491L407.158 300.303L407.492 301.286C407.492 301.286 407.492 301.391 407.43 301.433C407.367 301.474 407.283 301.495 407.179 301.495C407.074 301.495 406.97 301.495 406.886 301.453C406.844 301.433 406.802 301.391 406.802 301.328L406.572 300.345L405.067 300.805C405.067 300.805 404.942 300.847 404.858 300.805C404.795 300.805 404.732 300.784 404.691 300.742C404.628 300.7 404.586 300.659 404.586 300.596C404.586 300.533 404.607 300.491 404.691 300.449C404.774 300.429 406.301 299.989 406.301 299.989L405.067 299.341C405.067 299.341 404.962 299.236 404.983 299.194C404.983 299.153 405.025 299.111 405.088 299.069C405.151 299.027 405.234 299.006 405.318 299.006C405.401 299.006 405.485 299.006 405.569 299.069L406.719 299.78L407.45 298.881C407.597 298.797 407.66 298.776 407.764 298.776C407.869 298.776 407.952 298.818 408.015 298.839C408.119 298.902 408.14 298.985 408.078 299.048L407.262 299.885L408.977 300.031L408.998 300.094Z" fill="#1D71B8"/>
<path d="M437.265 308.67C437.265 308.67 437.369 308.67 437.432 308.732C437.495 308.774 437.537 308.816 437.537 308.879C437.537 308.942 437.495 308.983 437.432 309.025C437.286 309.067 437.223 309.088 437.16 309.067L435.446 308.879L435.78 309.862C435.78 309.862 435.78 309.966 435.718 310.008C435.655 310.029 435.571 310.071 435.467 310.071C435.362 310.071 435.258 310.071 435.174 310.029C435.132 310.008 435.09 309.966 435.09 309.904L434.861 308.921L433.355 309.381C433.355 309.381 433.23 309.402 433.146 309.381C433.083 309.381 433.021 309.36 432.979 309.318C432.916 309.276 432.874 309.234 432.874 309.172C432.874 309.109 432.895 309.067 432.979 309.025C433.042 309.004 434.589 308.565 434.589 308.565L433.355 307.917C433.355 307.917 433.251 307.812 433.272 307.77C433.272 307.728 433.313 307.687 433.376 307.645C433.439 307.603 433.522 307.582 433.606 307.582C433.69 307.582 433.773 307.582 433.857 307.645L435.007 308.356L435.739 307.457C435.885 307.373 435.948 307.352 436.052 307.352C436.157 307.352 436.24 307.394 436.303 307.415C436.408 307.477 436.429 307.561 436.366 307.624L435.55 308.461L437.265 308.607V308.67Z" fill="#1D71B8"/>
<g opacity="0.5">
<path d="M111.453 335.53C145.984 335.53 173.977 319.366 173.977 299.427C173.977 279.489 145.984 263.325 111.453 263.325C76.9221 263.325 48.9291 279.489 48.9291 299.427C48.9291 319.366 76.9221 335.53 111.453 335.53Z" fill="#047462"/>
</g>
<g opacity="0.5">
<path d="M343.205 239.894C362.932 251.282 362.932 269.786 343.205 281.175C323.477 292.564 291.461 292.564 271.734 281.175C252.007 269.786 252.007 251.282 271.734 239.894C291.461 228.505 323.477 228.505 343.205 239.894Z" fill="#047462"/>
</g>
<path opacity="0.5" d="M61.6199 343.7L146.61 392.8L299.377 304.481L214.387 255.355L61.6199 343.7Z" fill="#047462"/>
<path d="M326.568 281.049C317.748 280.496 319.708 265.537 322.095 257.392C322.95 254.45 326.493 253.017 329.408 253.973C332.323 254.928 334.108 260.459 334.007 263.526C333.932 266.392 336.997 281.703 326.568 281.049Z" fill="black"/>
<path d="M321.743 265.487C320.261 252.866 334.057 251.81 332.172 265.562C331.67 269.233 329.383 271.898 327.071 271.998C323.477 272.149 322.045 268.127 321.743 265.487Z" fill="#FCAF75"/>
<path d="M280.806 260.509C276.961 263.576 272.111 265.211 267.286 265.085C266.633 265.085 265.879 264.984 265.451 264.456C264.798 263.652 265.25 262.445 265.803 261.54C270.251 254.299 278.595 248.115 282.264 240.397C282.691 239.517 283.068 238.536 283.822 237.958C284.978 237.053 286.586 237.254 287.993 236.877C289.3 236.55 290.682 235.695 291.863 236.349C292.944 236.952 293.17 238.41 293.472 239.642C293.824 240.95 294.427 244.218 294.829 245.5C295.256 246.782 295.507 248.19 295.13 249.498C294.653 251.107 293.296 252.288 291.863 253.068C290.431 253.847 288.848 254.325 287.415 255.104C284.927 256.487 283.018 258.724 280.781 260.509H280.806Z" fill="#FCAF75"/>
<path d="M265.476 264.482C265.904 264.984 266.632 265.085 267.286 265.085C272.111 265.236 276.986 263.602 280.806 260.509C283.043 258.724 284.952 256.462 287.44 255.079C288.873 254.3 290.456 253.822 291.888 253.043C293.321 252.263 294.678 251.082 295.13 249.473C295.507 248.19 295.256 246.757 294.854 245.475C294.477 244.369 293.999 241.251 293.648 240.12C293.597 239.969 293.522 239.793 293.472 239.617C293.145 238.411 292.919 236.927 291.838 236.349C290.682 235.695 289.275 236.525 287.993 236.877C286.586 237.229 284.952 237.028 283.822 237.933C283.068 238.536 282.691 239.517 282.264 240.397C280.831 243.439 278.645 245.928 276.257 248.266C272.613 251.836 268.492 257.14 265.803 261.54C265.275 262.42 264.798 263.652 265.451 264.456L265.476 264.482Z" fill="black"/>
<path d="M273.669 252.515C273.619 253.017 273.769 253.545 274.172 253.822C274.523 254.023 274.951 254.023 275.353 253.998C279.65 253.671 283.445 251.081 286.762 248.341C288.471 246.933 290.154 245.425 291.537 243.665C292.366 242.584 293.12 241.402 293.622 240.12C293.572 239.969 293.497 239.793 293.446 239.617C293.12 238.41 293.069 235.846 291.989 235.243C290.833 234.589 289.25 235.268 287.968 235.62C286.561 235.972 284.45 235.167 283.294 236.098C282.54 236.701 282.867 238.762 282.439 239.642C281.007 242.684 278.62 245.928 276.232 248.266C275.503 249.271 274.8 250.227 274.222 251.157C273.945 251.559 273.719 251.987 273.619 252.489L273.669 252.515Z" fill="#FCAF75"/>
<path d="M277.715 165.049C277.841 167.01 277.992 169.298 278.142 171.812C278.293 174.176 278.469 176.765 278.645 179.48C278.796 181.693 278.921 183.955 279.072 186.319C280.58 209.951 282.465 239.617 282.465 239.667C282.49 239.743 282.515 239.793 282.565 239.843C284.701 243.841 292.768 244.721 293.497 239.667C294.351 224.055 297.141 210.429 299.076 197.934C299.729 193.66 300.307 189.537 300.659 185.489C300.986 182.045 301.137 178.676 301.086 175.332V174.829C301.036 171.938 300.81 169.072 300.358 166.256C300.207 165.401 300.056 164.572 299.88 163.742L281.686 151.926C281.686 152.429 277.715 164.471 277.715 165.024V165.049Z" fill="#FCAF75"/>
<path d="M299.076 138.978C302.091 154.44 303.825 166.684 305.66 176.061C305.811 176.765 305.936 177.469 306.087 178.148C306.816 181.743 307.62 184.886 308.55 187.576C308.751 188.204 308.952 188.782 309.178 189.31L310.686 196.551L311.339 199.719L323.025 255.707L323.452 257.693L323.829 259.529C323.829 263.928 330.564 262.445 330.966 258.724C330.991 258.448 331.016 258.146 331.067 257.869C331.167 257.04 331.243 256.21 331.318 255.406C334.937 221.591 333.931 207.965 331.645 195.168C331.368 193.534 331.067 191.9 330.74 190.266C330.288 187.903 329.785 185.464 329.282 182.874C329.408 182.045 329.483 181.215 329.584 180.385C329.609 180.159 329.634 179.958 329.634 179.732C329.659 179.606 329.659 179.505 329.684 179.38C331.67 161.781 331.167 148.281 330.715 138.978H299.076Z" fill="#FCAF75"/>
<path d="M299.076 138.978C302.091 154.44 303.825 166.684 305.66 176.061C305.811 176.765 305.936 177.469 306.087 178.148C306.816 181.743 307.62 184.886 308.55 187.576C308.751 188.204 308.952 188.782 309.178 189.31L310.686 196.551L311.339 199.719L323.025 255.707L323.452 257.693L323.829 259.529C323.829 263.928 330.564 262.445 330.966 258.724C330.991 258.448 331.016 258.146 331.067 257.869C331.167 257.04 331.243 256.21 331.318 255.406C334.937 221.591 333.931 207.965 331.645 195.168C331.368 193.534 331.067 191.9 330.74 190.266C330.288 187.903 329.785 185.464 329.282 182.874C329.408 182.045 329.483 181.215 329.584 180.385C329.609 180.159 329.634 179.958 329.634 179.732C329.659 179.606 329.659 179.505 329.684 179.38C331.67 161.781 331.167 148.281 330.715 138.978H299.076Z" fill="#FFBB7D"/>
<g style="mix-blend-mode:multiply" opacity="0.3">
<path d="M305.635 176.036C305.786 176.74 305.911 177.444 306.062 178.123C306.791 181.718 307.595 184.861 308.525 187.551C308.726 188.179 308.927 188.757 309.153 189.285L310.661 196.526L311.314 199.694C318.049 199.794 325.035 198.437 331.619 195.168C331.343 193.534 331.041 191.9 330.715 190.266C330.262 187.903 329.76 185.464 329.257 182.874C329.383 182.045 329.458 181.215 329.559 180.386C329.584 180.159 329.609 179.958 329.609 179.732L305.61 176.061L305.635 176.036Z" fill="#FCAF75"/>
</g>
<g style="mix-blend-mode:multiply" opacity="0.3">
<path d="M278.142 171.812C278.293 174.176 278.469 176.765 278.645 179.48C278.796 181.693 278.921 183.956 279.072 186.319C283.671 191.397 290.833 195.646 299.076 197.909C299.729 193.635 300.307 189.512 300.659 185.464C300.986 182.02 301.136 178.651 301.086 175.307L278.142 171.787V171.812Z" fill="#FCAF75"/>
</g>
<path d="M259.068 97.3202L287.465 91.6635C287.465 91.6635 298.322 55.8881 297.895 55.3099C297.467 54.7316 287.038 33.2614 287.038 33.2614L278.871 78.1126L254.369 90.4316L259.093 97.3202H259.068Z" fill="#3F76AB"/>
<path d="M259.068 97.3202L287.465 91.6635C287.465 91.6635 298.322 55.8881 297.895 55.3099C297.467 54.7316 287.038 33.2614 287.038 33.2614L278.871 78.1126L254.369 90.4316L259.093 97.3202H259.068Z" fill="#EDEDED"/>
<path d="M314.405 11.5146C332.474 17.3976 328.629 34.443 323.754 47.8179L311.013 35.8258L314.43 11.5146H314.405Z" fill="#1D1D1B"/>
<path d="M278.544 178.022C281.309 185.539 318.652 200.599 330.463 188.908L333.931 137.269C337.123 120.324 334.333 111.575 325.538 103.379C324.482 102.399 323.326 101.418 322.095 100.438L295.859 99.3818L285.581 98.9544C276.66 127.389 276.433 158.362 278.519 178.022H278.544Z" fill="#047462"/>
<path d="M274.498 73.21C274.473 78.4393 279.449 83.1909 285.581 82.3361C285.606 87.3392 287.139 94.3535 285.581 98.9542C288.094 104.963 291.436 109.589 298.045 111.298C304.68 112.983 317.923 111.575 325.513 103.379C324.256 94.0769 327.397 82.1602 330.664 72.1541C333.203 64.4108 334.132 54.6561 334.836 51.3627C328.78 43.745 323.15 40.5521 315.36 35.1468C307.595 29.7164 301.664 23.5067 292.793 26.8252C283.897 30.1438 285.254 47.139 281.987 54.1282C278.745 61.0922 274.498 65.9443 274.473 73.21H274.498Z" fill="white"/>
<g style="mix-blend-mode:multiply" opacity="0.75">
<path d="M285.606 98.9544C288.119 104.963 291.461 109.589 298.07 111.299C304.705 112.983 317.949 111.575 325.538 103.379C334.333 111.575 337.123 120.299 333.931 137.269L330.463 188.908C329.383 189.939 327.599 191.221 324.683 192.252C327.096 174.226 324.357 132.719 320.537 118.564C298.799 119.419 289.602 114.315 284.55 102.323L285.606 98.9796V98.9544Z" fill="#047462"/>
</g>
<g style="mix-blend-mode:multiply" opacity="0.2">
<path d="M285.606 98.9544C288.119 104.963 291.461 109.589 298.07 111.299C304.705 112.983 317.948 111.575 325.538 103.379C324.281 94.0771 327.423 82.1604 330.69 72.1543L324.156 66.6988L313.928 84.0711C307.142 95.5101 289.526 93.2474 288.797 81.557L285.581 82.462C285.606 87.3645 287.139 94.3788 285.581 98.9796L285.606 98.9544Z" fill="#1D1D1B"/>
</g>
<path d="M307.369 92.3926C306.489 94.1022 304.68 95.4598 302.066 96.4654L298.397 97.2699C298.045 98.351 296.387 98.5521 294.728 98.7532C293.497 98.5772 292.944 97.999 293.044 97.0185C292.064 96.3397 291.486 95.5855 291.914 94.605C291.009 93.9513 290.607 93.1468 291.109 92.0658C290.33 91.2361 290.004 90.3059 290.582 89.25L281.56 90.331C279.625 90.5573 278.946 88.722 281.56 88.1186L298.347 85.0515C300.684 84.4732 303.046 84.4732 305.509 85.0515L311.264 86.5348L310.937 93.4988L307.419 92.4177L307.369 92.3926Z" fill="#FCAF75"/>
<path d="M334.886 51.3628C344.436 63.0281 354.438 95.8118 347.552 100.664C339.661 107.502 322.698 99.96 306.942 93.5239C307.771 89.8031 307.871 87.0376 305.459 85.0515L334.585 88.3449L323 69.9921C318.476 54.6311 326.166 45.7061 334.861 51.3628H334.886Z" fill="#EDEDED"/>
<path d="M312.018 23.1548C313.174 27.1019 316.24 33.2111 316.994 36.9822C317.848 41.6333 309.304 48.8487 303.574 48.4213C299.528 47.6168 298.473 42.4126 297.895 37.6107L312.018 23.1548Z" fill="#FCAF75"/>
<path opacity="0.15" d="M309.077 26.1717C309.077 26.1717 312.445 53.9523 299.101 51.6393C290.406 50.156 292.24 35.8006 292.24 35.8006L309.077 26.1717Z" fill="#1D1D1B"/>
<path d="M293.698 8.92525C282.238 10.6851 269.372 24.6885 288.621 32.5073C288.119 26.1718 287.013 21.3699 293.698 8.92525Z" fill="#1D1D1B"/>
<path d="M300.659 0.754268C287.29 2.61469 283.168 10.4586 284.5 21.0932C284.651 30.0182 292.064 41.8344 297.266 41.6081C304.655 42.0103 308.298 33.387 314.606 24.1604C319.481 8.97531 313.098 -0.980448 300.659 0.754268Z" fill="#FCAF75"/>
<path d="M284.676 21.395C287.466 24.3616 291.914 26.046 297.467 27.3282C302.167 29.264 306.69 29.0629 308.5 31.7027L313.928 29.4652C319.381 23.18 319.934 5.22942 310.56 1.43316C295.532 -4.65092 277.69 10.4336 284.676 21.4201V21.395Z" fill="#1D1D1B"/>
<path d="M308.7 28.9372C309.53 25.6689 311.792 23.5068 313.752 25.3923C314.656 26.2723 314.606 27.8813 313.752 29.9428C313.098 31.5518 312.093 32.2809 310.837 32.482C309.002 32.7586 308.072 31.4764 308.7 28.9372Z" fill="#FCAF75"/>
<path d="M267.16 69.0871C275.654 77.0568 281.334 89.0489 285.606 106.522L256.228 107.477C256.656 93.876 247.76 81.205 236.526 69.0871H267.16Z" fill="white"/>
<path d="M257.184 91.2613C260.224 91.563 260.224 93.9514 257.963 94.1525C261.406 94.1022 261.984 97.1191 259.068 97.3202C261.054 97.4208 261.431 99.7086 258.566 99.96C260.727 100.639 260.878 101.971 258.465 102.323L255.198 102.499C253.892 102.625 252.082 101.846 252.459 100.211C251.353 100.211 250.499 97.5214 251.052 97.3202C250.047 96.8928 249.318 94.9318 250.072 94.3033C248.69 93.5491 248.489 91.5127 250.499 89.2752L251.454 88.2947L252.886 91.0602L257.209 91.2613H257.184Z" fill="#FCAF75"/>
<path d="M141.283 277.178C141.283 279.038 142.791 280.547 144.65 280.547C146.51 280.547 148.018 279.038 148.018 277.178C148.018 275.317 146.51 273.809 144.65 273.809C142.791 273.809 141.283 275.317 141.283 277.178Z" fill="#030403"/>
<path d="M149.249 311.344C149.249 313.204 150.757 314.713 152.617 314.713C154.476 314.713 155.984 313.204 155.984 311.344C155.984 309.484 154.476 307.975 152.617 307.975C150.757 307.975 149.249 309.484 149.249 311.344Z" fill="#030403"/>
<path d="M94.8672 327.057C94.8672 328.917 96.375 330.426 98.2346 330.426C100.094 330.426 101.602 328.917 101.602 327.057C101.602 325.196 100.094 323.688 98.2346 323.688C96.375 323.688 94.8672 325.196 94.8672 327.057Z" fill="#030403"/>
<path d="M54.0808 302.821C54.0808 304.681 55.5886 306.19 57.4483 306.19C59.3079 306.19 60.8157 304.681 60.8157 302.821C60.8157 300.961 59.3079 299.452 57.4483 299.452C55.5886 299.452 54.0808 300.961 54.0808 302.821Z" fill="#030403"/>
<path d="M79.1105 269.937C79.1105 271.797 80.6183 273.306 82.4779 273.306C84.3376 273.306 85.8454 271.797 85.8454 269.937C85.8454 268.076 84.3376 266.568 82.4779 266.568C80.6183 266.568 79.1105 268.076 79.1105 269.937Z" fill="#030403"/>
<path d="M78.8844 267.297V262.646L85.1418 265.462L108.664 287.385L142.766 270.741L147.741 268.956V273.608L118.917 293.293L156.864 302.243V306.894L153.672 310.514L112.333 300.76L101.678 325.8L94.7416 325.171V320.52L98.0085 299.452L53.5028 301.338L52.3971 297.34V292.689L95.7468 291.181L78.8844 267.297Z" fill="#030403"/>
<path d="M78.8844 262.646L85.1418 260.811L108.664 282.734L142.766 266.09L147.741 268.956L118.917 288.642L156.864 302.243L153.672 305.863L112.333 296.109L101.678 321.149L94.7416 320.52L98.0085 294.801L53.5028 296.687L52.3971 292.689L95.7468 286.53L78.8844 262.646Z" fill="#878787"/>
<path d="M102.18 287.033C99.6421 288.516 99.6421 290.879 102.18 292.363C104.718 293.846 108.865 293.846 111.403 292.363C113.941 290.904 113.941 288.516 111.403 287.033C108.865 285.549 104.718 285.549 102.18 287.033Z" fill="#030403"/>
<path d="M113.313 247.687H100.27V289.698H113.313V247.687Z" fill="#030403"/>
<path d="M107.282 208.216L158.849 238.008C161.236 239.391 163.146 238.26 163.146 235.519C163.146 229.008 158.698 221.29 153.195 218.122L107.256 191.598C104.869 190.216 102.959 191.347 102.959 194.087V200.775C102.959 203.515 104.894 206.859 107.256 208.241L107.282 208.216Z" fill="#4A4A49"/>
<path d="M89.2883 98.0743L91.927 115.623L102.431 185.439C102.532 186.117 102.758 186.846 103.085 187.5C103.738 188.883 104.769 190.115 105.925 190.768L113.062 194.892C113.991 195.445 114.821 195.52 115.449 195.218C116.379 194.69 116.781 193.584 116.555 192.025L115.348 184.207L103.763 109.011L102.859 103.178C102.507 100.815 100.723 98.3257 98.8378 97.5966L92.2285 94.9568C91.3992 94.63 90.6956 94.6803 90.1678 95.0322C89.4391 95.5099 89.0621 96.6161 89.2883 98.0743Z" fill="#4A4A49"/>
<path d="M115.047 265.386L162.317 238.008L104.417 191.196L56.9707 218.65L115.047 265.386Z" fill="#4A4A49"/>
<path d="M43.6014 122.008L90.1678 95.0321L115.575 195.168L68.782 222.219L43.6014 122.008Z" fill="#4A4A49"/>
<path d="M60.2628 235.418L111.83 265.21C114.218 266.593 116.127 265.462 116.127 262.721C116.127 256.21 111.679 248.492 106.176 245.324L60.2377 218.8C57.8503 217.418 55.9404 218.549 55.9404 221.289V227.977C55.9404 230.717 57.8755 234.061 60.2377 235.444L60.2628 235.418Z" fill="#1D1D1B"/>
<path d="M69.5107 219.253L55.8147 130.38C55.4378 128.017 53.6787 125.528 51.7939 124.774L45.1846 122.134C43.1994 121.33 41.8674 122.763 42.2444 125.252L55.3875 212.641C55.7142 214.753 57.1718 217.016 58.8806 217.996L66.0176 222.119C68.2542 223.401 69.938 222.019 69.5107 219.253Z" fill="#1D1D1B"/>
<path d="M169.278 161.58L159.603 127.011C157.24 115.522 153.798 110.62 143.243 112.178L136.156 117.558L140.202 125.05L147.314 149.713L153.019 169.499C153.873 170.832 154.878 172.164 155.984 173.497L173.022 165.049C171.766 163.817 170.534 162.636 169.278 161.58Z" fill="white"/>
<path d="M125.853 316.699V322.179C127.059 324.643 129.974 327.761 132.412 328.842C136.91 337.54 143.117 342.04 150.857 342.82C157.718 343.423 161.99 341.085 162.493 336.836C161.839 327.434 149.375 324.366 147.867 316.724H125.853V316.699Z" fill="black"/>
<path d="M160.08 298.999V303.726C162.995 306.466 165.885 309.031 168.223 308.88C172.269 317.805 177.923 322.607 184.934 323.939C192.473 324.165 195.489 321.123 195.489 316.699C194.911 309.885 184.683 304.807 182.949 297.416L160.105 298.999H160.08Z" fill="black"/>
<path d="M169.906 305.561C167.594 305.058 165.584 304.354 163.9 303.399C159.904 301.212 157.567 297.742 156.763 292.941C154.074 269.308 153.647 259.403 157.014 245.977C141.057 231.22 112.911 231.823 107.583 210.831C107.483 210.278 107.407 209.775 107.332 209.297C106.98 206.532 107.256 204.621 107.96 202.056C108.463 200.146 109.191 197.858 110.046 194.565L131.407 193.81L136.835 193.634C147.188 197.833 152.868 201.529 176.164 224.834C177.345 226.016 178.576 227.248 179.858 228.53C183.401 233.005 182.446 236.625 182.295 239.642C182.295 239.642 181.642 261.389 182.295 273.456C182.924 285.524 183.929 296.938 183.929 296.938C184.808 304.254 177.697 305.712 169.931 305.586L169.906 305.561Z" fill="#4A4A49"/>
<g style="mix-blend-mode:multiply" opacity="0.3">
<path d="M163.9 303.399C159.904 301.212 157.567 297.742 156.763 292.941C154.074 269.308 153.647 259.403 157.014 245.977C141.057 231.22 112.911 231.823 107.583 210.831C107.483 210.278 107.407 209.775 107.332 209.297C106.98 206.532 107.256 204.621 107.96 202.057C109.82 204.948 114.645 209.423 120.978 214.275C122.385 215.356 130.452 214.476 133.97 208.442C133.467 215.205 133.266 219.932 135.88 221.591C147.163 228.781 157.115 236.273 166.991 238.058C157.919 254.023 158.799 279.038 163.875 303.424L163.9 303.399Z" fill="#3F668A"/>
</g>
<path d="M138.066 325.523C136.408 325.196 134.824 324.668 133.342 323.939C132.563 323.587 131.834 323.185 131.13 322.733C127.285 320.319 124.446 316.648 123.742 312.199C121.053 288.566 119.746 270.364 123.114 256.914C107.156 242.156 86.5491 237.078 81.2215 216.11C80.3419 211.61 81.0707 205.903 82.4277 199.693C82.8549 197.682 83.3575 195.646 83.8853 193.609L88.7857 193.81L115.776 194.816L116.354 194.866L120.5 198.361L119.847 209.272L131.08 222.37L146.083 242.005C147.691 244.595 148.495 247.587 148.37 250.629C148.37 250.629 147.716 272.376 148.37 284.443C148.998 296.511 151.461 315.266 151.461 315.266C152.34 322.582 145.857 325.674 138.066 325.573V325.523Z" fill="#4A4A49"/>
<g style="mix-blend-mode:multiply" opacity="0.3">
<path d="M132.035 322.733H131.13C127.285 320.319 124.446 316.648 123.742 312.199C121.053 288.566 119.746 270.364 123.114 256.914C107.156 242.156 86.5491 237.078 81.2215 216.11C80.3419 211.61 81.0707 205.903 82.4277 199.693C82.8549 197.682 83.3575 195.646 83.8853 193.609L88.7857 193.81C86.6496 203.565 87.9815 212.591 93.7363 220.761C101.15 233.96 116.68 244.293 130.829 253.419C128.165 274.89 127.16 298.019 132.06 322.733H132.035Z" fill="#3F668A"/>
</g>
<path d="M152.692 131.386C152.616 158.286 137.463 184.936 136.835 193.609C122.661 204.596 100.697 215.381 88.8107 207.889C86.0966 206.18 83.9103 203.515 82.4276 199.693C82.2768 177.167 86.6495 154.264 90.4944 145.967C93.6357 139.154 96.5006 135.71 98.7372 130.883C108.01 124.321 119.143 120.626 128.894 117.056C141.509 114.365 138.393 113.46 145.63 114.365C150.204 118.489 152.717 124.321 152.692 131.411V131.386Z" fill="white"/>
<path d="M140.177 387.847L76.5722 351.117C71.2195 348.024 67.0227 340.733 67.0227 334.549V249.849C67.0227 244.997 69.7116 241.754 73.7325 241.754C75.2654 241.754 76.8989 242.232 78.5575 243.187L142.162 279.918C147.515 283.01 151.712 290.301 151.712 296.486V381.16C151.712 386.012 149.023 389.255 145.002 389.255C143.469 389.255 141.836 388.777 140.177 387.822V387.847ZM70.9682 249.874V334.574C70.9682 339.326 74.4361 345.359 78.5575 347.723L142.162 384.453C143.193 385.057 144.173 385.358 145.002 385.358C147.515 385.358 147.791 382.442 147.791 381.21V296.536C147.791 291.784 144.323 285.75 140.202 283.387L76.5973 246.656C75.567 246.053 74.5869 245.751 73.7576 245.751C71.2446 245.751 70.9682 248.668 70.9682 249.9V249.874Z" fill="#3C3C3B"/>
<path d="M285.882 303.5L222.278 266.769C216.925 263.677 212.728 256.386 212.728 250.201V165.502C212.728 160.675 215.417 157.407 219.438 157.407C220.971 157.407 222.604 157.884 224.263 158.84L287.868 195.57C293.22 198.663 297.417 205.953 297.417 212.138V296.837C297.417 301.69 294.728 304.933 290.707 304.933C289.149 304.933 287.541 304.455 285.882 303.5ZM216.674 165.527V250.226C216.674 254.978 220.142 261.012 224.263 263.375L287.868 300.106C288.898 300.709 289.878 301.011 290.707 301.011C293.22 301.011 293.497 298.094 293.497 296.863V212.163C293.497 207.412 290.029 201.378 285.908 199.015L222.303 162.284C221.272 161.68 220.292 161.379 219.463 161.379C216.95 161.379 216.674 164.295 216.674 165.527Z" fill="#3C3C3B"/>
<path d="M61.6198 245.701L146.61 294.776L299.377 206.456V202.107L214.387 157.331L61.6198 241.352V245.701Z" fill="#575756"/>
<path d="M61.6198 241.352L146.61 290.426L299.377 202.107L214.387 152.982L61.6198 241.352Z" fill="#C6C6C6"/>
<path opacity="0.15" d="M88.8107 207.864C86.0966 206.154 83.9103 203.489 82.4276 199.668C82.2768 177.142 86.6495 154.239 90.4944 145.942H105.975C103.11 149.437 110.498 149.361 113.313 153.761C117.56 160.398 125.677 188.858 136.835 193.609C131.155 203.791 96.4001 216.085 88.8107 207.864Z" fill="#1D1D1B"/>
<path d="M98.7623 130.858C91.6505 136.766 89.7406 142.699 91.0473 155.244C94.0378 184.005 105.799 202.484 105.799 202.484C118.113 209.222 132.487 215.482 150.933 218.197C150.707 214.552 151.134 206.758 154.401 205.652C137.84 197.732 127.738 188.028 119.193 186.444C117.585 171.963 115.499 162.435 112.257 149.437C109.895 140.235 104.693 133.749 98.7623 130.883V130.858Z" fill="white"/>
<path d="M131.557 116.452C127.537 116.251 124.772 117.86 120.475 119.947C114.695 125.251 120.374 147.878 134.322 147.878L139.775 140.839L144.399 144.157C147.264 133.045 142.816 124.045 131.583 116.452H131.557Z" fill="#DADADA"/>
<path d="M132.538 115.27C132.186 115.27 126.582 119.469 126.582 119.469C118.389 124.12 127.763 146.395 139.75 140.813L150.933 133.045L132.563 115.27H132.538Z" fill="#FFBB7D"/>
<path opacity="0.15" d="M153.722 133.296C153.722 141.543 153.848 151.046 144.474 151.448C132.914 148.255 131.909 128.645 133.14 122.285L153.722 133.321V133.296Z" fill="#1D1D1B"/>
<path d="M146.384 92.317C136.357 92.4175 130.627 97.144 130.25 107.603C130.527 118.614 131.105 125.251 136.407 132.769C139.725 136.917 144.223 139.909 149.324 139.657C155.431 139.355 164.428 124.723 165.307 114.139C166.79 103.454 157.668 95.2333 146.384 92.317Z" fill="#FFBB7D"/>
<path d="M164.051 121.857C161.789 127.212 148.47 126.232 142.64 119.67L141.986 123.592L136.608 119.117L131.934 125.201L130.25 122.787C126.003 114.24 126.205 100.186 138.342 93.1213C154.551 86.6099 174.656 105.491 164.051 121.832V121.857Z" fill="black"/>
<path d="M135.126 123.743C134.472 122.662 133.92 121.48 133.794 120.248C133.668 119.017 134.02 117.684 134.975 116.854C135.905 116.025 137.488 115.874 138.468 116.678C139.147 117.231 139.448 118.137 139.473 119.016C139.473 119.871 139.247 120.726 138.996 121.531C138.77 122.285 138.569 123.039 138.343 123.768C138.192 124.296 137.991 124.849 137.513 125.101C137.061 125.327 136.483 125.201 136.081 124.899C135.679 124.598 135.377 124.17 135.126 123.743Z" fill="#FFBB7D"/>
<path d="M152.566 220.711L185.135 201.88L231.551 228.706L198.982 247.511L152.566 220.711Z" fill="white"/>
<path d="M198.731 241.98L222.278 228.379L223.685 229.183L200.138 242.785L198.731 241.98Z" fill="#1D1D1B"/>
<path d="M194.886 239.742L218.433 226.166L219.287 226.644L195.74 240.245L194.886 239.742Z" fill="#1D1D1B"/>
<path d="M192.549 238.41L216.096 224.809L216.975 225.312L193.428 238.913L192.549 238.41Z" fill="#1D1D1B"/>
<path d="M190.236 237.052L213.784 223.476L214.638 223.954L191.091 237.555L190.236 237.052Z" fill="#1D1D1B"/>
<path d="M185.587 234.362L209.109 220.786L209.989 221.289L186.442 234.865L185.587 234.362Z" fill="#1D1D1B"/>
<path d="M183.25 233.03L206.797 219.429L207.652 219.932L184.105 233.533L183.25 233.03Z" fill="#1D1D1B"/>
<path d="M195.439 223.3L204.46 218.096L205.34 218.599L196.318 223.803L195.439 223.3Z" fill="#1D1D1B"/>
<path d="M178.601 230.34L202.123 216.738L203.003 217.241L179.456 230.842L178.601 230.34Z" fill="#1D1D1B"/>
<path d="M176.264 229.007L199.811 215.406L200.666 215.909L177.144 229.485L176.264 229.007Z" fill="#1D1D1B"/>
<path d="M179.456 224.457L197.474 214.048L198.354 214.551L180.31 224.96L179.456 224.457Z" fill="#1D1D1B"/>
<path d="M180.009 216.085L190.488 210.026L191.367 210.529L180.863 216.588L180.009 216.085Z" fill="#1D1D1B"/>
<path d="M177.671 214.752L188.176 208.668L189.03 209.171L178.526 215.23L177.671 214.752Z" fill="#1D1D1B"/>
<path d="M179.983 219.077C179.933 219.228 179.933 219.404 179.933 219.554C179.933 219.982 180.109 220.409 180.335 220.811C180.511 221.138 180.662 221.666 181.265 221.792C181.466 221.541 181.391 221.339 181.29 221.138C181.139 220.811 180.963 220.485 180.813 220.158C180.637 219.781 180.411 219.429 180.159 219.077C180.31 218.499 180.813 217.945 181.692 217.619C181.768 217.593 181.692 217.518 181.617 217.543C180.737 217.87 180.26 218.373 180.059 218.951C179.933 218.775 179.807 218.624 179.657 218.448C178.651 217.317 177.269 216.261 176.892 214.979C176.716 214.401 176.817 213.797 177.194 213.269C177.546 212.792 178.375 212.238 179.405 212.364C180.586 212.515 180.637 213.496 180.461 214.023C180.26 214.577 179.757 215.079 179.204 215.557C179.154 215.607 179.28 215.658 179.33 215.607C180.285 214.778 181.34 213.571 180.235 212.641C179.782 212.264 178.978 212.213 178.3 212.389C177.546 212.616 177.118 213.068 176.867 213.521C176.214 214.652 176.993 215.859 177.923 216.89C178.476 217.493 179.104 218.071 179.657 218.675C179.782 218.825 179.908 218.976 180.034 219.152L179.983 219.077ZM180.888 220.661C181.039 220.962 181.34 221.339 181.215 221.666C180.888 221.566 180.788 221.314 180.687 221.138C180.586 220.962 180.486 220.811 180.411 220.636C180.235 220.284 180.109 219.906 180.109 219.554C180.109 219.454 180.109 219.353 180.109 219.253C180.411 219.705 180.662 220.183 180.888 220.686V220.661Z" fill="#1D71B8"/>
<path d="M170.937 223.376C172.57 222.999 173.475 221.993 172.972 221.013C172.972 220.987 172.897 220.962 172.846 220.987C172.696 221.013 172.545 221.038 172.394 221.038C172.57 220.887 172.545 220.761 172.52 220.61L172.444 220.032C172.746 220.183 173.073 220.384 173.45 220.485C173.701 220.56 173.902 220.485 174.002 220.359C174.103 220.183 174.002 219.932 173.877 219.705C174.178 219.856 174.656 220.057 174.983 219.831C175.309 219.605 175.158 219.202 175.058 218.976C175.862 219.756 176.892 220.56 178.124 221.289C178.174 221.314 178.275 221.289 178.249 221.264C178.149 220.837 177.822 220.485 177.47 220.108C177.018 219.63 176.641 219.152 176.314 218.624C176.164 218.398 176.038 218.147 175.912 217.92C175.787 217.669 175.611 217.367 175.812 217.116C175.837 217.443 176.063 217.795 176.214 217.996C176.415 218.272 176.666 218.524 176.968 218.775C177.194 218.951 177.445 219.152 177.797 219.228C178.551 219.378 178.275 218.448 178.199 218.272C177.998 217.769 177.445 217.292 176.842 216.915C176.566 216.739 176.239 216.764 175.988 216.864C176.038 216.739 176.139 216.613 176.34 216.538C176.641 216.412 176.968 216.538 177.169 216.688C177.496 216.89 177.722 217.191 177.923 217.418C178.124 217.644 178.652 218.096 178.3 218.348C178.224 218.398 178.35 218.448 178.4 218.423C178.626 218.272 178.576 218.096 178.476 217.92C178.3 217.593 177.973 217.292 177.697 217.015C177.37 216.688 176.792 216.186 176.063 216.563C175.862 216.663 175.787 216.814 175.762 216.99C175.636 217.066 175.561 217.191 175.535 217.292C175.485 217.543 175.661 217.795 175.762 218.046C175.937 218.398 176.139 218.725 176.365 219.052C176.616 219.404 176.892 219.756 177.219 220.108C177.521 220.434 177.873 220.761 177.998 221.138C176.666 220.334 175.535 219.404 174.681 218.398C174.555 218.222 174.405 218.046 174.254 217.87C174.204 217.82 174.078 217.87 174.128 217.92C174.254 218.096 174.405 218.272 174.555 218.448C174.756 218.75 174.907 219.052 174.957 219.353C174.957 219.479 174.957 219.58 174.907 219.68C174.756 220.057 174.028 219.68 173.852 219.605C173.801 219.605 173.751 219.554 173.726 219.529C173.575 219.278 173.324 219.052 173.048 218.851C172.997 218.825 172.897 218.851 172.922 218.901C173.073 219.152 173.299 219.378 173.6 219.554C173.676 219.68 173.751 219.806 173.801 219.932C173.827 220.032 173.852 220.108 173.852 220.208C173.877 220.46 173.525 220.409 173.299 220.309C172.997 220.183 172.696 220.032 172.419 219.881C172.369 219.881 172.294 219.881 172.294 219.906C172.319 220.208 172.444 220.56 172.369 220.862C172.294 221.163 171.816 220.862 171.69 220.837C171.615 220.837 171.565 220.837 171.489 220.837C171.866 221.113 172.344 221.163 172.796 221.063C173.198 221.968 172.394 222.923 170.836 223.25C170.736 223.25 170.786 223.351 170.886 223.326L170.937 223.376ZM175.988 217.04C176.591 216.613 177.496 217.568 177.747 217.82C177.923 218.021 178.048 218.222 178.124 218.448C178.174 218.574 178.174 218.7 178.174 218.825C178.174 218.876 178.174 218.951 178.149 219.001C178.074 219.253 177.722 219.102 177.596 219.052C176.943 218.75 176.515 218.197 176.264 217.769C176.139 217.543 176.038 217.292 176.013 217.066L175.988 217.04Z" fill="#1D71B8"/>
<path d="M166.111 207.21C165.483 208.769 165.307 210.453 165.835 212.339L165.257 213.797L164.754 215.13L164.202 217.468C163.674 218.021 162.995 218.197 162.317 218.272L161.286 219.906C161.035 220.309 160.482 220.409 159.678 220.258L158.397 221.566C157.567 222.244 155.456 221.817 152.993 221.666H152.818L148.621 219.63C148.621 219.63 147.314 219.052 147.038 218.121C146.661 216.789 147.163 216.537 146.937 215.909C146.711 215.28 145.756 214.828 145.756 213.345C145.756 211.56 146.937 211.56 147.038 210.78C147.113 210.101 146.435 209.951 146.987 208.115C147.415 206.707 149.023 206.682 149.45 205.928C149.827 205.274 149.877 203.59 151.084 202.383C152.189 201.252 154.853 202.383 154.853 202.383L157.768 204.017L164.051 203.288L164.704 203.59C166.061 204.218 166.664 205.802 166.111 207.185V207.21Z" fill="#FCAF75"/>
<g style="mix-blend-mode:multiply" opacity="0.5">
<path d="M158.497 204.52L163.221 205.073C163.221 205.073 163.247 210.076 163.221 209.674C163.221 209.423 161.462 207.562 160.105 206.154C159.226 205.249 158.497 204.495 158.497 204.495V204.52Z" fill="#FCAF75"/>
</g>
<path d="M168.876 220.434L150.581 196.953C150.129 196.375 150.229 195.57 150.807 195.117C151.385 194.665 152.189 194.766 152.642 195.344L170.937 218.825C171.389 219.404 172.495 221.817 171.942 222.244C171.389 222.697 169.328 220.987 168.901 220.409L168.876 220.434Z" fill="#1D1D1B"/>
<g style="mix-blend-mode:multiply" opacity="0.5">
<path d="M165.257 213.797L164.754 215.13L164.202 217.468C163.674 218.021 162.995 218.197 162.317 218.272L161.287 219.906C161.035 220.309 160.482 220.409 159.678 220.258L158.397 221.566C157.567 222.244 155.456 221.817 152.994 221.666C154.828 218.85 155.858 215.733 156.059 212.314L153.471 208.341L163.925 211.886L165.307 213.772L165.257 213.797Z" fill="#FCAF75"/>
</g>
<path d="M151.988 207.135L156.637 211.032L162.895 212.967C165.307 213.747 166.313 210.805 163.975 209.624C163.699 209.473 159 207.537 159 207.537L155.155 202.76C152.441 202.257 151.209 205.073 152.013 207.135H151.988Z" fill="#FCAF75"/>
<g style="mix-blend-mode:multiply" opacity="0.5">
<path d="M156.713 204.093L153.999 203.791L158.949 207.512L157.592 204.093H156.713Z" fill="#FCAF75"/>
</g>
<path d="M172.168 222.747C172.168 222.747 172.067 222.722 172.017 222.672L171.665 222.219C171.665 222.219 171.866 221.842 171.967 221.993L172.319 222.446C172.319 222.446 172.369 222.647 172.294 222.697C172.268 222.722 172.218 222.747 172.168 222.747Z" fill="#B2B2B2"/>
<path d="M203.179 202.585C204.134 204.168 202.425 205.953 201.143 204.772L200.565 204.47C201.143 205.576 199.485 207.537 198.178 206.305L196.62 204.872C196.494 206.456 195.941 207.236 194.383 206.205L189.885 200.699L184.532 196.702V199.769L186.216 202.761C187.171 204.722 185.462 206.305 184.18 204.571L182.697 202.484L181.818 201.302L180.687 197.833C180.813 195.822 181.014 192.78 181.994 190.039L180.184 188.556L185.562 184.785L188.302 186.369C191.242 186.645 197.424 190.919 198.278 192.403L202.525 198.738C203.882 200.473 203.958 202.157 202.425 201.579L203.154 202.61L203.179 202.585Z" fill="#FCAF75"/>
<path d="M173.022 165.049C165.986 164.672 160.382 167.689 155.984 173.497C166.137 185.715 181.089 194.037 181.089 194.037C180.712 190.793 185.939 185.061 188.905 186.469C182.446 175.583 179.808 171.712 173.047 165.024L173.022 165.049Z" fill="white"/>
<path d="M252.305 219.631L242.359 225.376L244.231 228.62L254.177 222.875L252.305 219.631Z" fill="#333332"/>
<path d="M206.521 204.747L245.021 226.871C245.021 228.606 243.814 229.31 242.357 228.455L209.21 209.423C207.727 208.568 206.546 206.507 206.546 204.797L206.521 204.747Z" fill="#333332"/>
<path d="M294.201 198.236L255.801 176.288L206.521 204.747L245.021 226.871L294.201 198.236Z" fill="#575756"/>
<path d="M240.17 217.871L242.357 219.128L239.643 220.686L237.456 219.429L240.17 217.871Z" fill="#DADADA"/>
<path d="M248.84 215.382L246.126 216.94L243.94 215.683L246.654 214.125L248.84 215.382Z" fill="#DADADA"/>
<path d="M249.896 212.239L252.082 213.521L249.368 215.08L247.182 213.823L249.896 212.239Z" fill="#DADADA"/>
<path d="M253.138 210.379L255.324 211.636L252.61 213.194L250.423 211.937L253.138 210.379Z" fill="#DADADA"/>
<path d="M256.379 208.493L258.566 209.775L255.852 211.334L253.665 210.077L256.379 208.493Z" fill="#DADADA"/>
<path d="M265.049 206.029L262.335 207.588L260.149 206.331L262.863 204.747L265.049 206.029Z" fill="#DADADA"/>
<path d="M266.105 202.887L268.291 204.144L265.577 205.727L263.391 204.445L266.105 202.887Z" fill="#DADADA"/>
<path d="M269.347 201.026L271.533 202.283L268.819 203.842L266.633 202.585L269.347 201.026Z" fill="#DADADA"/>
<path d="M260.45 191.523L258.264 190.241L260.978 188.682L263.164 189.964L260.45 191.523Z" fill="#DADADA"/>
<path d="M263.692 189.638L261.506 188.381L264.22 186.822L266.407 188.079L263.692 189.638Z" fill="#DADADA"/>
<path d="M264.748 186.495L267.437 184.936L269.648 186.218L266.934 187.777L264.748 186.495Z" fill="#DADADA"/>
<path d="M225.947 212.264L223.76 211.007L226.474 209.423L228.661 210.706L225.947 212.264Z" fill="#DADADA"/>
<path d="M229.188 210.379L227.002 209.122L229.716 207.563L231.902 208.82L229.188 210.379Z" fill="#DADADA"/>
<path d="M248.112 199.468L243.186 202.308L242.156 202.887L241.628 203.214L240.271 203.993L238.386 205.074L235.672 206.633L232.43 208.518L230.244 207.261L239.115 202.132L239.442 201.931L245.925 198.21L248.112 199.468Z" fill="#DADADA"/>
<path d="M248.639 199.166L246.453 197.884L249.142 196.325L251.353 197.582L248.639 199.166Z" fill="#DADADA"/>
<path d="M251.881 197.28L249.695 196.023L252.384 194.465L254.595 195.722L251.881 197.28Z" fill="#DADADA"/>
<path d="M252.937 194.138L255.625 192.579L257.837 193.836L255.123 195.42L252.937 194.138Z" fill="#DADADA"/>
<path d="M260.978 191.825L263.692 190.266L265.879 191.523L263.164 193.082L260.978 191.825Z" fill="#DADADA"/>
<path d="M264.22 189.964L266.934 188.38L269.121 189.662L266.407 191.221L264.22 189.964Z" fill="#DADADA"/>
<path d="M267.462 188.079L270.176 186.52L272.362 187.777L269.648 189.336L267.462 188.079Z" fill="#DADADA"/>
<path d="M226.474 212.566L229.188 211.007L231.375 212.264L228.661 213.823L226.474 212.566Z" fill="#DADADA"/>
<path d="M234.616 210.404L231.902 211.963L229.716 210.706L232.43 209.122L234.616 210.404Z" fill="#DADADA"/>
<path d="M237.859 208.518L235.144 210.077L232.958 208.82L235.672 207.261L237.859 208.518Z" fill="#DADADA"/>
<path d="M241.1 206.658L238.386 208.216L236.2 206.959L238.914 205.376L241.1 206.658Z" fill="#DADADA"/>
<path d="M244.342 204.772L241.628 206.356L239.442 205.074L242.156 203.515L244.342 204.772Z" fill="#DADADA"/>
<path d="M247.584 202.912L244.87 204.47L242.683 203.213L245.398 201.655L247.584 202.912Z" fill="#DADADA"/>
<path d="M250.826 201.026L248.112 202.61L245.925 201.328L248.639 199.769L250.826 201.026Z" fill="#DADADA"/>
<path d="M254.067 199.166L251.353 200.725L249.167 199.468L251.881 197.909L254.067 199.166Z" fill="#DADADA"/>
<path d="M257.309 197.28L254.595 198.864L252.409 197.582L255.123 196.023L257.309 197.28Z" fill="#DADADA"/>
<path d="M263.692 193.409L266.406 191.825L268.593 193.107L265.904 194.666L263.692 193.409Z" fill="#DADADA"/>
<path d="M271.835 191.221L269.146 192.78L266.934 191.523L269.648 189.964L271.835 191.221Z" fill="#DADADA"/>
<path d="M270.176 189.663L272.89 188.079L275.076 189.361L272.387 190.92L270.176 189.663Z" fill="#DADADA"/>
<path d="M229.213 214.15L231.902 212.566L234.089 213.848L231.4 215.407L229.213 214.15Z" fill="#DADADA"/>
<path d="M237.331 211.962L234.642 213.521L232.455 212.264L235.144 210.705L237.331 211.962Z" fill="#DADADA"/>
<path d="M235.697 210.404L238.386 208.82L240.572 210.102L237.883 211.661L235.697 210.404Z" fill="#DADADA"/>
<path d="M238.914 208.518L241.628 206.96L243.814 208.217L241.125 209.8L238.914 208.518Z" fill="#DADADA"/>
<path d="M242.156 206.658L244.87 205.099L247.056 206.356L244.367 207.915L242.156 206.658Z" fill="#DADADA"/>
<path d="M245.398 204.772L248.112 203.213L250.298 204.47L247.609 206.054L245.398 204.772Z" fill="#DADADA"/>
<path d="M253.54 202.61L250.851 204.169L248.639 202.912L251.353 201.353L253.54 202.61Z" fill="#DADADA"/>
<path d="M251.881 201.026L254.595 199.468L256.781 200.725L254.092 202.309L251.881 201.026Z" fill="#DADADA"/>
<path d="M260.551 198.562L257.335 200.423L255.123 199.166L258.365 197.28L255.651 195.721L258.365 194.163L261.079 195.721L261.958 196.249L263.265 197.004L261.456 198.034L260.551 198.562Z" fill="#DADADA"/>
<path d="M268.618 196.224L266.432 194.967L269.146 193.409L271.332 194.666L268.618 196.224Z" fill="#DADADA"/>
<path d="M272.387 191.523L274.574 192.805L271.86 194.364L269.673 193.107L272.387 191.523Z" fill="#DADADA"/>
<path d="M272.915 191.221L275.629 189.663L277.815 190.92L275.101 192.478L272.915 191.221Z" fill="#DADADA"/>
<path d="M231.927 215.708L234.642 214.15L236.828 215.407L234.114 216.965L231.927 215.708Z" fill="#DADADA"/>
<path d="M237.356 215.105L235.17 213.848L237.884 212.289L240.07 213.546L237.356 215.105Z" fill="#DADADA"/>
<path d="M238.411 211.962L241.125 210.404L243.312 211.661L240.598 213.245L238.411 211.962Z" fill="#DADADA"/>
<path d="M244.367 208.543L246.553 209.8L243.839 211.359L241.653 210.102L244.367 208.543Z" fill="#DADADA"/>
<path d="M244.895 208.216L247.609 206.658L249.795 207.915L247.081 209.499L244.895 208.216Z" fill="#DADADA"/>
<path d="M248.137 206.356L250.851 204.797L253.037 206.055L250.323 207.613L248.137 206.356Z" fill="#DADADA"/>
<path d="M253.565 205.753L251.378 204.471L254.092 202.912L256.279 204.169L253.565 205.753Z" fill="#DADADA"/>
<path d="M254.62 202.61L257.334 201.051L259.521 202.308L256.807 203.867L254.62 202.61Z" fill="#DADADA"/>
<path d="M261.104 198.864L262.084 198.286L263.793 197.305L266.004 198.563L264.27 199.568L263.29 200.121L260.048 202.007L257.862 200.725L261.104 198.864Z" fill="#DADADA"/>
<path d="M276.76 197.808L274.071 199.367L271.885 198.11L274.574 196.551L276.76 197.808Z" fill="#DADADA"/>
<path d="M277.816 194.691L280.002 195.948L277.313 197.507L275.101 196.25L277.816 194.691Z" fill="#DADADA"/>
<path d="M281.057 192.805L283.244 194.062L280.555 195.646L278.343 194.364L281.057 192.805Z" fill="#DADADA"/>
<path d="M229.968 194.565L236.476 198.311C236.778 198.487 237.255 198.487 237.557 198.311L247.358 192.654C247.659 192.478 247.659 192.202 247.358 192.026L240.849 188.28C240.547 188.104 240.07 188.104 239.768 188.28L229.968 193.937C229.666 194.113 229.666 194.389 229.968 194.565Z" fill="#878787"/>
<path d="M294.326 198.889L304.931 160.122C306.389 161.429 307.218 163.591 306.816 165.024L297.618 198.638C297.216 200.046 295.759 200.171 294.326 198.889Z" fill="#4A4A49"/>
<path d="M255.701 188.581L247.659 228.103L296.889 199.668L304.931 160.122L255.701 188.581Z" fill="#4A4A49"/>
<path d="M245.071 227.348L255.676 188.581C257.134 189.889 257.963 192.051 257.561 193.484L248.363 227.097C247.961 228.505 246.503 228.631 245.071 227.348Z" fill="#333332"/>
<path d="M276.459 195.747C276.182 197.431 277.213 198.11 278.771 197.255C280.329 196.425 281.811 194.389 282.088 192.705C282.364 191.02 281.334 190.341 279.776 191.196C278.218 192.026 276.735 194.062 276.459 195.747Z" fill="#DADADA"/>
<path d="M171.489 250.478L143.645 271.143L98.3101 251.483L126.154 230.818L171.489 250.478Z" fill="white"/>
<path d="M126.959 235.871L106.829 250.804L105.472 250.201L125.576 235.267L126.959 235.871Z" fill="#1D1D1B"/>
<path d="M130.728 237.48L110.599 252.439L109.744 252.061L129.874 237.128L130.728 237.48Z" fill="#1D1D1B"/>
<path d="M132.99 238.486L112.886 253.419L112.031 253.042L132.16 238.109L132.99 238.486Z" fill="#1D1D1B"/>
<path d="M135.277 239.466L115.147 254.4L114.293 254.023L134.422 239.089L135.277 239.466Z" fill="#1D1D1B"/>
<path d="M139.825 241.427L119.696 256.361L118.841 256.009L138.971 241.075L139.825 241.427Z" fill="#1D1D1B"/>
<path d="M142.087 242.407L121.958 257.366L121.128 256.989L141.258 242.055L142.087 242.407Z" fill="#1D1D1B"/>
<path d="M131.959 252.615L124.244 258.347L123.39 257.97L131.105 252.263L131.959 252.615Z" fill="#1D1D1B"/>
<path d="M146.636 244.394L126.506 259.327L125.677 258.95L145.806 244.017L146.636 244.394Z" fill="#1D1D1B"/>
<path d="M148.922 245.374L128.793 260.308L127.939 259.956L148.068 244.997L148.922 245.374Z" fill="#1D1D1B"/>
<path d="M146.485 249.849L131.055 261.288L130.225 260.936L145.63 249.497L146.485 249.849Z" fill="#1D1D1B"/>
<path d="M146.862 257.593L137.89 264.255L137.036 263.878L146.007 257.215L146.862 257.593Z" fill="#1D1D1B"/>
<path d="M149.123 258.573L140.152 265.235L139.323 264.883L148.294 258.221L149.123 258.573Z" fill="#1D1D1B"/>
<path d="M162.141 254.274C159.754 256.059 155.557 256.537 152.818 255.355C150.078 254.173 149.802 251.76 152.189 249.975C154.577 248.19 158.773 247.712 161.513 248.894C164.252 250.076 164.528 252.489 162.141 254.274ZM152.541 250.101C150.305 251.76 150.556 254.023 153.119 255.129C155.682 256.235 159.578 255.783 161.814 254.123C164.051 252.464 163.8 250.201 161.236 249.095C158.673 247.989 154.778 248.441 152.541 250.101Z" fill="#1D71B8"/>
<path d="M161.412 253.947C159.351 255.456 155.783 255.883 153.446 254.877C151.109 253.872 150.857 251.81 152.918 250.277C154.979 248.768 158.547 248.341 160.884 249.346C163.222 250.352 163.473 252.414 161.412 253.947ZM153.144 250.352C151.209 251.785 151.435 253.746 153.647 254.701C155.858 255.657 159.251 255.28 161.186 253.821C163.121 252.388 162.895 250.427 160.683 249.472C158.472 248.517 155.079 248.894 153.144 250.352Z" fill="#1D71B8"/>
<path d="M159.703 253.218C158.472 254.123 156.361 254.375 154.954 253.771C153.571 253.168 153.421 251.936 154.627 251.031C155.833 250.126 157.969 249.874 159.377 250.478C160.759 251.081 160.91 252.313 159.703 253.218ZM154.878 251.131C153.773 251.961 153.898 253.067 155.155 253.62C156.436 254.174 158.371 253.947 159.477 253.118C160.583 252.288 160.457 251.182 159.201 250.629C157.919 250.076 155.984 250.302 154.878 251.131Z" fill="#1D71B8"/>
<path d="M155.18 250.377L154.25 250.201L154.753 250.579L154.049 250.176C154.175 250.126 155.004 250.327 155.004 250.327L154.501 249.95L155.205 250.377C155.205 250.403 155.205 250.403 155.205 250.428L155.18 250.377Z" fill="#1D71B8"/>
<path d="M155.682 250.201C155.682 250.201 155.607 250.201 155.557 250.227C155.255 250.126 155.054 249.875 155.054 249.875C155.255 249.598 155.305 249.598 155.356 249.573C155.657 249.674 155.858 249.925 155.858 249.925C155.783 250.151 155.733 250.176 155.682 250.201ZM155.557 249.724C155.557 249.724 155.481 249.648 155.431 249.648C155.381 249.648 155.331 249.648 155.255 249.648C155.18 249.648 155.155 249.699 155.129 249.724C155.129 249.824 155.331 250.076 155.331 250.076C155.356 250.126 155.406 250.151 155.456 250.151C155.506 250.151 155.557 250.151 155.632 250.151C155.707 250.151 155.733 250.101 155.758 250.076C155.758 249.975 155.557 249.724 155.557 249.724Z" fill="#1D71B8"/>
<path d="M156.386 249.321L156.16 249.422L156.386 249.975L156.059 249.447L155.808 249.497L156.386 249.321Z" fill="#1D71B8"/>
<path d="M156.637 249.95L156.838 249.271C156.964 249.271 157.341 249.824 157.341 249.824C157.24 249.85 157.165 249.724 157.165 249.724L156.738 249.774L156.688 249.925C156.688 249.925 156.662 249.925 156.637 249.925V249.95ZM157.14 249.699L156.914 249.347L156.763 249.724L157.14 249.674V249.699Z" fill="#1D71B8"/>
<path d="M157.592 249.246H157.919C157.919 249.598 158.095 249.875 158.095 249.875C157.994 249.875 157.818 249.598 157.818 249.598H157.617L157.542 249.875L157.592 249.246ZM157.693 249.271L157.617 249.523H157.818C157.818 249.523 157.944 249.523 157.994 249.497C158.045 249.497 158.07 249.447 158.07 249.397C157.994 249.271 157.944 249.271 157.869 249.271H157.668H157.693Z" fill="#1D71B8"/>
<path d="M158.547 249.674L158.447 249.271L158.623 249.623L159.075 249.322L158.623 249.674L158.472 249.9L158.497 249.648L158.547 249.674Z" fill="#1D71B8"/>
<path d="M159.753 249.498L160.055 249.573C160.08 249.875 160.055 249.9 160.005 249.9C159.653 249.9 159.477 249.849 159.477 249.849L159.226 250.076L159.753 249.498ZM159.804 249.548L159.527 249.799L159.703 249.849C159.703 249.849 159.804 249.849 159.879 249.849C159.929 249.849 159.98 249.824 160.03 249.774C160.08 249.724 160.105 249.699 160.105 249.648C160.105 249.623 160.055 249.598 160.005 249.573L159.829 249.523L159.804 249.548Z" fill="#1D71B8"/>
<path d="M160.91 249.975L160.407 250.352C160.357 250.377 160.306 250.402 160.281 250.402C159.98 250.101 160.533 249.749 160.533 249.749C160.608 249.799 160.03 250.126 160.03 250.126C159.98 250.151 159.929 250.201 159.929 250.226C160.055 250.352 160.105 250.352 160.156 250.352C160.206 250.352 160.256 250.352 160.332 250.302L160.91 249.95V249.975Z" fill="#1D71B8"/>
<path d="M161.211 250.176L161.412 250.302C161.286 250.579 161.236 250.579 161.186 250.579C161.136 250.579 161.085 250.579 161.06 250.579C160.834 250.78 160.784 250.805 160.759 250.805C160.457 250.729 160.306 250.604 160.306 250.604C160.306 250.579 161.211 250.176 161.211 250.176ZM160.533 250.704C160.533 250.704 160.608 250.754 160.658 250.754C160.708 250.754 160.759 250.755 160.834 250.704C160.935 250.654 160.96 250.629 160.985 250.604C160.935 250.503 160.834 250.403 160.834 250.403L160.432 250.579L160.558 250.679L160.533 250.704ZM160.91 250.403L161.01 250.503C161.01 250.503 161.085 250.553 161.136 250.553C161.186 250.553 161.236 250.553 161.286 250.528C161.337 250.352 161.236 250.277 161.236 250.277L160.91 250.428V250.403Z" fill="#1D71B8"/>
<path d="M160.658 250.981L161.663 250.654C161.689 250.704 160.759 250.981 160.759 250.981L160.91 251.207L160.658 250.981Z" fill="#1D71B8"/>
<path d="M161.915 251.081L160.909 251.358C160.909 251.308 161.915 251.081 161.915 251.081Z" fill="#1D71B8"/>
<path d="M161.814 251.66C161.864 251.408 161.814 251.408 161.739 251.408L161.261 251.458C161.261 251.458 161.11 251.484 161.085 251.509C161.136 251.408 161.186 251.408 161.261 251.383L161.739 251.333C161.739 251.333 161.839 251.333 161.889 251.333C161.814 251.66 161.814 251.634 161.839 251.634L161.814 251.66Z" fill="#1D71B8"/>
<path d="M159.351 253.746L160.281 253.922L159.754 253.57L160.482 253.972C160.357 254.023 159.527 253.847 159.527 253.847L160.055 254.199L159.326 253.796C159.326 253.771 159.326 253.771 159.326 253.746H159.351Z" fill="#1D71B8"/>
<path d="M158.899 253.922C159.326 253.972 159.527 254.224 159.527 254.224C158.949 254.45 158.748 254.199 158.748 254.199C158.824 253.947 158.849 253.947 158.899 253.922ZM159.05 254.4C159.05 254.4 159.125 254.475 159.175 254.475C159.226 254.475 159.276 254.475 159.351 254.45C159.402 254.45 159.452 254.4 159.477 254.375C159.477 254.274 159.251 254.023 159.251 254.023C159.226 253.972 159.175 253.947 159.125 253.947C159.075 253.947 159.025 253.947 158.949 253.947C158.899 253.947 158.849 253.997 158.824 254.023C158.824 254.123 159.05 254.375 159.05 254.375V254.4Z" fill="#1D71B8"/>
<path d="M158.271 254.852L158.497 254.727L158.271 254.173L158.597 254.701L158.849 254.651L158.296 254.852H158.271Z" fill="#1D71B8"/>
<path d="M157.969 254.224L157.793 254.928C157.668 254.928 157.291 254.374 157.291 254.374C157.391 254.349 157.467 254.475 157.467 254.475L157.869 254.425L157.919 254.274C157.919 254.274 157.944 254.274 157.969 254.274V254.224ZM157.492 254.5L157.718 254.852L157.869 254.45L157.517 254.5H157.492Z" fill="#1D71B8"/>
<path d="M157.064 255.003L156.763 255.028C156.763 254.651 156.587 254.375 156.587 254.375C156.688 254.375 156.863 254.626 156.863 254.626H157.064L157.115 254.324L157.09 254.978L157.064 255.003ZM156.964 254.978L157.014 254.701H156.813C156.813 254.701 156.688 254.701 156.637 254.752C156.587 254.752 156.562 254.802 156.562 254.852C156.637 254.978 156.688 254.978 156.763 254.978H156.964Z" fill="#1D71B8"/>
<path d="M156.11 254.576L156.21 254.978L156.034 254.626L155.607 254.953L156.034 254.576L156.16 254.324L156.135 254.576H156.11Z" fill="#1D71B8"/>
<path d="M154.954 254.852L154.677 254.802C154.627 254.5 154.677 254.475 154.702 254.45C155.054 254.4 155.23 254.45 155.23 254.45L155.456 254.199L154.979 254.827L154.954 254.852ZM154.903 254.802L155.18 254.526L155.004 254.475C155.004 254.475 154.903 254.475 154.828 254.475C154.778 254.475 154.727 254.526 154.677 254.576C154.627 254.626 154.602 254.676 154.627 254.702C154.627 254.727 154.677 254.752 154.727 254.777L154.903 254.827V254.802Z" fill="#1D71B8"/>
<path d="M153.798 254.475L154.25 254.048C154.3 254.023 154.325 253.998 154.376 253.972C154.778 254.174 154.753 254.224 154.727 254.249L154.2 254.651L154.652 254.224C154.702 254.174 154.727 254.148 154.727 254.123C154.602 254.023 154.552 254.023 154.501 254.023C154.451 254.023 154.401 254.048 154.325 254.098L153.798 254.5V254.475Z" fill="#1D71B8"/>
<path d="M153.471 254.324L153.27 254.224C153.345 253.947 153.395 253.922 153.446 253.922C153.496 253.922 153.546 253.922 153.571 253.922C153.772 253.696 153.823 253.671 153.848 253.671C154.149 253.696 154.325 253.822 154.325 253.822C154.325 253.847 153.446 254.35 153.446 254.35L153.471 254.324ZM153.772 254.098L153.647 254.023C153.647 254.023 153.571 253.972 153.521 253.972C153.471 253.972 153.421 253.972 153.37 254.023C153.37 254.199 153.471 254.274 153.471 254.274L153.772 254.098ZM154.099 253.746C154.099 253.746 154.024 253.696 153.973 253.721C153.923 253.721 153.873 253.721 153.798 253.771C153.722 253.822 153.672 253.847 153.672 253.872C153.722 253.947 153.848 254.048 153.848 254.048L154.225 253.822L154.099 253.746Z" fill="#1D71B8"/>
<path d="M153.923 253.495L152.943 253.922C152.893 253.872 153.798 253.495 153.798 253.495L153.597 253.293L153.898 253.495H153.923Z" fill="#1D71B8"/>
<path d="M152.616 253.545L153.597 253.168C153.622 253.218 152.616 253.545 152.616 253.545Z" fill="#1D71B8"/>
<path d="M152.666 252.967C152.666 253.218 152.742 253.218 152.817 253.193L153.295 253.067C153.295 253.067 153.42 253.017 153.471 252.992C153.445 253.092 153.395 253.118 153.32 253.118L152.842 253.243C152.842 253.243 152.742 253.243 152.692 253.243C152.692 252.942 152.692 252.942 152.692 252.942L152.666 252.967Z" fill="#1D71B8"/>
<path d="M159.251 253.017C158.246 253.771 156.487 253.972 155.356 253.469C154.2 252.967 154.099 251.961 155.104 251.207C156.11 250.453 157.869 250.251 159 250.754C160.156 251.257 160.256 252.263 159.251 253.017ZM155.306 251.307C154.401 251.961 154.501 252.866 155.532 253.319C156.562 253.771 158.12 253.57 159.025 252.916C159.929 252.263 159.829 251.358 158.799 250.905C157.768 250.453 156.21 250.654 155.306 251.307Z" fill="#1D71B8"/>
<path d="M153.823 251.333L153.345 251.458L153.471 251.71C153.295 251.735 153.195 251.483 153.195 251.483L152.818 251.659L153.119 251.408L152.767 251.257L153.22 251.333L153.396 251.056C153.572 251.081 153.396 251.333 153.396 251.333H153.873H153.823Z" fill="#1D71B8"/>
<path d="M161.714 252.766L161.236 252.891L161.362 253.143C161.186 253.168 161.085 252.916 161.085 252.916L160.708 253.092L161.01 252.841L160.658 252.715L161.111 252.791L161.286 252.514C161.462 252.539 161.286 252.791 161.286 252.791H161.764L161.714 252.766Z" fill="#1D71B8"/>
<path d="M184.281 257.266L154.25 274.613L111.453 249.9L141.484 232.552L184.281 257.266Z" fill="white"/>
<path d="M141.71 237.656L119.997 250.201L118.716 249.447L140.403 236.902L141.71 237.656Z" fill="#1D1D1B"/>
<path d="M145.253 239.717L123.566 252.238L122.762 251.785L144.449 239.24L145.253 239.717Z" fill="#1D1D1B"/>
<path d="M147.415 240.949L125.702 253.495L124.898 253.017L146.611 240.497L147.415 240.949Z" fill="#1D1D1B"/>
<path d="M149.551 242.181L127.838 254.727L127.059 254.274L148.747 241.729L149.551 242.181Z" fill="#1D1D1B"/>
<path d="M153.848 244.67L132.135 257.19L131.331 256.738L153.044 244.193L153.848 244.67Z" fill="#1D1D1B"/>
<path d="M155.984 245.902L134.297 258.448L133.492 257.97L155.18 245.45L155.984 245.902Z" fill="#1D1D1B"/>
<path d="M144.751 254.877L136.433 259.679L135.629 259.227L143.947 254.425L144.751 254.877Z" fill="#1D1D1B"/>
<path d="M160.281 248.391L138.569 260.911L137.79 260.459L159.477 247.913L160.281 248.391Z" fill="#1D1D1B"/>
<path d="M162.417 249.623L140.73 262.168L139.926 261.691L161.638 249.171L162.417 249.623Z" fill="#1D1D1B"/>
<path d="M159.477 253.796L142.866 263.4L142.062 262.948L158.698 253.344L159.477 253.796Z" fill="#1D1D1B"/>
<path d="M158.975 261.514L149.299 267.121L148.52 266.668L158.196 261.062L158.975 261.514Z" fill="#1D1D1B"/>
<path d="M161.136 262.772L151.461 268.353L150.656 267.901L160.332 262.294L161.136 262.772Z" fill="#1D1D1B"/>
<path d="M174.555 259.981C171.967 261.464 167.77 261.464 165.182 259.981C162.593 258.498 162.593 256.059 165.182 254.551C167.77 253.067 171.967 253.067 174.555 254.551C177.144 256.034 177.144 258.473 174.555 259.981ZM165.483 254.752C163.071 256.135 163.071 258.422 165.483 259.805C167.896 261.188 171.816 261.188 174.229 259.805C176.641 258.422 176.641 256.135 174.229 254.752C171.816 253.369 167.896 253.369 165.483 254.752Z" fill="#1D71B8"/>
<path d="M173.877 259.579C171.665 260.861 168.072 260.861 165.86 259.579C163.649 258.297 163.649 256.235 165.86 254.953C168.072 253.671 171.665 253.671 173.877 254.953C176.088 256.235 176.088 258.297 173.877 259.579ZM166.061 255.079C163.975 256.286 163.975 258.246 166.061 259.453C168.147 260.66 171.565 260.66 173.651 259.453C175.736 258.246 175.736 256.286 173.651 255.079C171.565 253.872 168.147 253.872 166.061 255.079Z" fill="#1D71B8"/>
<path d="M172.243 258.649C170.936 259.403 168.775 259.403 167.468 258.649C166.162 257.894 166.162 256.663 167.468 255.883C168.775 255.129 170.936 255.129 172.243 255.883C173.55 256.637 173.55 257.869 172.243 258.649ZM167.67 256.009C166.463 256.713 166.463 257.819 167.67 258.523C168.876 259.227 170.811 259.227 172.017 258.523C173.223 257.819 173.223 256.713 172.017 256.009C170.811 255.305 168.876 255.305 167.67 256.009Z" fill="#1D71B8"/>
<path d="M168.072 255.305L167.167 255.003L167.619 255.431L166.966 254.928C167.092 254.928 167.896 255.179 167.896 255.179L167.444 254.752L168.097 255.255C168.097 255.28 168.097 255.28 168.097 255.28L168.072 255.305Z" fill="#1D71B8"/>
<path d="M168.599 255.204C168.599 255.204 168.524 255.204 168.474 255.204C168.172 255.079 168.021 254.802 168.021 254.802C168.248 254.551 168.298 254.551 168.348 254.551C168.65 254.676 168.801 254.953 168.801 254.953C168.7 255.179 168.65 255.179 168.599 255.204ZM168.524 254.727C168.524 254.727 168.449 254.651 168.398 254.651C168.348 254.651 168.298 254.651 168.223 254.651C168.147 254.651 168.122 254.676 168.097 254.727C168.097 254.827 168.273 255.104 168.273 255.104C168.298 255.154 168.348 255.179 168.398 255.179C168.449 255.179 168.499 255.179 168.574 255.179C168.65 255.179 168.675 255.154 168.7 255.104C168.7 255.003 168.524 254.727 168.524 254.727Z" fill="#1D71B8"/>
<path d="M169.404 254.425L169.152 254.501L169.303 255.079L169.052 254.526H168.801L169.404 254.45V254.425Z" fill="#1D71B8"/>
<path d="M169.579 255.054L169.856 254.4C169.982 254.4 170.283 255.003 170.283 255.003C170.183 255.003 170.107 254.878 170.107 254.878H169.68L169.605 255.003C169.605 255.003 169.579 255.003 169.554 255.003L169.579 255.054ZM170.107 254.852L169.931 254.475L169.73 254.827H170.107V254.852Z" fill="#1D71B8"/>
<path d="M170.61 254.45H170.937C170.911 254.802 171.037 255.104 171.037 255.104C170.937 255.104 170.786 254.802 170.786 254.802H170.585L170.484 255.053L170.61 254.45ZM170.71 254.5L170.61 254.752H170.811C170.811 254.752 170.937 254.777 170.987 254.752C171.037 254.752 171.062 254.702 171.087 254.676C171.012 254.551 170.962 254.526 170.911 254.526H170.71V254.5Z" fill="#1D71B8"/>
<path d="M171.515 255.003L171.464 254.601L171.59 254.978L172.093 254.752L171.615 255.053L171.439 255.28L171.515 255.053V255.003Z" fill="#1D71B8"/>
<path d="M172.721 254.953L172.997 255.054C172.997 255.355 172.947 255.38 172.922 255.38C172.57 255.355 172.394 255.28 172.394 255.28L172.143 255.481L172.721 254.953ZM172.771 255.028L172.47 255.255L172.645 255.33C172.645 255.33 172.746 255.355 172.821 255.355C172.872 255.355 172.922 255.355 172.972 255.305C173.048 255.255 173.048 255.23 173.048 255.204C173.048 255.179 173.022 255.154 172.947 255.129L172.771 255.054V255.028Z" fill="#1D71B8"/>
<path d="M173.801 255.582L173.249 255.908C173.198 255.908 173.148 255.934 173.123 255.959C172.847 255.632 173.45 255.33 173.45 255.33C173.525 255.38 172.897 255.657 172.897 255.657C172.821 255.682 172.796 255.707 172.796 255.758C172.897 255.883 172.947 255.908 172.997 255.908C173.048 255.908 173.123 255.908 173.173 255.858L173.776 255.582H173.801Z" fill="#1D71B8"/>
<path d="M174.078 255.808L174.254 255.959C174.103 256.21 174.053 256.21 174.002 256.21C173.952 256.21 173.902 256.21 173.877 256.21C173.626 256.386 173.575 256.386 173.55 256.386C173.274 256.286 173.123 256.135 173.123 256.135C173.123 256.11 174.078 255.808 174.078 255.808ZM173.324 256.235C173.324 256.235 173.399 256.286 173.45 256.311C173.5 256.311 173.55 256.311 173.626 256.311C173.726 256.286 173.751 256.26 173.776 256.235C173.751 256.135 173.651 256.034 173.651 256.034L173.223 256.16L173.324 256.286V256.235ZM173.726 255.959L173.827 256.059C173.827 256.059 173.902 256.11 173.927 256.135C173.977 256.135 174.028 256.135 174.078 256.135C174.128 255.984 174.053 255.883 174.053 255.883L173.701 255.984L173.726 255.959Z" fill="#1D71B8"/>
<path d="M173.45 256.537L174.505 256.336C174.53 256.386 173.575 256.562 173.575 256.562L173.701 256.813L173.475 256.562L173.45 256.537Z" fill="#1D71B8"/>
<path d="M174.706 256.763L173.676 256.914C173.676 256.864 174.706 256.763 174.706 256.763Z" fill="#1D71B8"/>
<path d="M174.53 257.341C174.606 257.09 174.53 257.09 174.48 257.09H174.002C174.002 257.09 173.852 257.09 173.827 257.14C173.902 257.04 173.952 257.04 174.002 257.04H174.48C174.48 257.04 174.58 257.04 174.631 257.04C174.53 257.341 174.53 257.341 174.53 257.341Z" fill="#1D71B8"/>
<path d="M171.841 259.151L172.746 259.428L172.269 259.001L172.947 259.478C172.821 259.503 172.017 259.252 172.017 259.252L172.495 259.679L171.816 259.202C171.816 259.177 171.816 259.177 171.816 259.177L171.841 259.151Z" fill="#1D71B8"/>
<path d="M171.364 259.277C171.766 259.378 171.942 259.654 171.942 259.654C171.364 259.805 171.188 259.529 171.188 259.529C171.288 259.302 171.314 259.277 171.364 259.277ZM171.464 259.78C171.464 259.78 171.54 259.856 171.59 259.856C171.64 259.856 171.69 259.856 171.766 259.856C171.841 259.856 171.866 259.805 171.892 259.78C171.892 259.68 171.716 259.403 171.716 259.403C171.69 259.353 171.64 259.328 171.59 259.328C171.54 259.328 171.489 259.328 171.414 259.328C171.339 259.328 171.314 259.378 171.288 259.403C171.288 259.529 171.464 259.78 171.464 259.78Z" fill="#1D71B8"/>
<path d="M170.635 260.107L170.861 260.006L170.685 259.428L170.962 260.006H171.213L170.635 260.107Z" fill="#1D71B8"/>
<path d="M170.409 259.453L170.157 260.132C170.032 260.132 169.73 259.504 169.73 259.504C169.831 259.504 169.906 259.629 169.906 259.629H170.333L170.409 259.479C170.409 259.479 170.434 259.479 170.459 259.479L170.409 259.453ZM169.906 259.68L170.082 260.057L170.258 259.68H169.881H169.906Z" fill="#1D71B8"/>
<path d="M169.429 260.107H169.127C169.152 259.73 169.027 259.453 169.027 259.453C169.127 259.453 169.278 259.755 169.278 259.755H169.454L169.554 259.479L169.454 260.107H169.429ZM169.353 260.057L169.429 259.805H169.228C169.228 259.805 169.102 259.805 169.052 259.805C169.002 259.805 168.976 259.856 168.951 259.906C169.027 260.032 169.077 260.057 169.127 260.057H169.328H169.353Z" fill="#1D71B8"/>
<path d="M168.524 259.604L168.574 260.032L168.424 259.655L167.946 259.931L168.399 259.604L168.549 259.378L168.499 259.629L168.524 259.604Z" fill="#1D71B8"/>
<path d="M167.343 259.73L167.067 259.654C167.067 259.353 167.092 259.328 167.142 259.302C167.494 259.302 167.67 259.378 167.67 259.378L167.921 259.177L167.368 259.755L167.343 259.73ZM167.293 259.68L167.594 259.428L167.418 259.353C167.418 259.353 167.318 259.328 167.268 259.353C167.217 259.353 167.167 259.378 167.117 259.428C167.067 259.478 167.041 259.504 167.041 259.554C167.041 259.579 167.092 259.604 167.142 259.629L167.318 259.705L167.293 259.68Z" fill="#1D71B8"/>
<path d="M166.237 259.227L166.74 258.85C166.79 258.825 166.84 258.8 166.866 258.8C167.167 259.101 166.589 259.453 166.589 259.453C166.514 259.403 167.092 259.076 167.092 259.076C167.142 259.051 167.192 259.001 167.192 258.976C167.067 258.85 167.016 258.85 166.966 258.85C166.916 258.85 166.84 258.85 166.79 258.9L166.212 259.252L166.237 259.227Z" fill="#1D71B8"/>
<path d="M165.936 259.026L165.735 258.9C165.86 258.649 165.911 258.624 165.961 258.624C166.011 258.624 166.061 258.624 166.086 258.624C166.313 258.422 166.363 258.397 166.388 258.397C166.69 258.473 166.84 258.598 166.84 258.598C166.84 258.624 165.911 259.026 165.911 259.026H165.936ZM166.262 258.825L166.162 258.724C166.162 258.724 166.086 258.674 166.036 258.674C165.986 258.674 165.936 258.674 165.885 258.699C165.835 258.85 165.961 258.95 165.961 258.95L166.287 258.825H166.262ZM166.639 258.523C166.639 258.523 166.564 258.473 166.514 258.473C166.463 258.473 166.413 258.473 166.338 258.498C166.237 258.548 166.212 258.573 166.187 258.598C166.237 258.699 166.338 258.8 166.338 258.8L166.74 258.624L166.614 258.523H166.639Z" fill="#1D71B8"/>
<path d="M166.463 258.272L165.433 258.599C165.383 258.548 166.338 258.272 166.338 258.272L166.162 258.045L166.438 258.272H166.463Z" fill="#1D71B8"/>
<path d="M165.157 258.171L166.162 257.895C166.187 257.945 165.157 258.171 165.157 258.171Z" fill="#1D71B8"/>
<path d="M165.282 257.593C165.257 257.844 165.307 257.844 165.408 257.819L165.911 257.744C165.911 257.744 166.061 257.719 166.086 257.693C166.036 257.794 165.986 257.794 165.936 257.794L165.433 257.869C165.433 257.869 165.307 257.869 165.282 257.869C165.333 257.568 165.333 257.568 165.307 257.568L165.282 257.593Z" fill="#1D71B8"/>
<path d="M171.816 258.397C170.736 259.026 168.976 259.026 167.896 258.397C166.815 257.769 166.815 256.763 167.896 256.135C168.976 255.506 170.736 255.506 171.816 256.135C172.897 256.763 172.897 257.769 171.816 258.397ZM168.097 256.26C167.142 256.813 167.142 257.718 168.097 258.297C169.052 258.85 170.635 258.85 171.615 258.297C172.595 257.744 172.57 256.839 171.615 256.26C170.66 255.707 169.077 255.707 168.097 256.26Z" fill="#1D71B8"/>
<path d="M166.614 256.084L166.111 256.134L166.212 256.411C166.011 256.411 165.961 256.16 165.961 256.16L165.559 256.285L165.885 256.059L165.559 255.883C165.684 255.808 166.011 256.009 166.011 256.009L166.212 255.757C166.388 255.808 166.162 256.034 166.162 256.034L166.639 256.084H166.614Z" fill="#1D71B8"/>
<path d="M174.279 258.422L173.776 258.473L173.877 258.749C173.676 258.749 173.626 258.498 173.626 258.498L173.224 258.624L173.55 258.397L173.224 258.221C173.349 258.146 173.676 258.347 173.676 258.347L173.877 258.096C174.053 258.146 173.827 258.372 173.827 258.372L174.304 258.422H174.279Z" fill="#1D71B8"/>
</svg>
