<svg width="33" height="33" viewBox="0 0 33 33" fill="none" xmlns="http://www.w3.org/2000/svg">
    <path d="M31.7997 0.978231C31.5264 0.682136 31.1981 0.4435 30.8337 0.275949C30.4693 0.108397 30.0759 0.015211 29.676 0.00171175C29.2761 -0.0117875 28.8774 0.0546641 28.5029 0.197272C28.1283 0.339881 27.7851 0.555853 27.4929 0.832857L14.3277 13.227L12.9968 18.5643L18.4897 17.7336L31.6563 5.34222C31.9485 5.06522 32.184 4.73262 32.3493 4.3634C32.5147 3.99417 32.6067 3.59557 32.62 3.19033C32.6333 2.7851 32.5677 2.38117 32.427 2.00162C32.2863 1.62206 32.0731 1.27432 31.7997 0.978231Z" fill="#F84530"/>
    <path d="M21.5968 16.698C25.2861 21.9065 25.819 27.0624 23.6601 29.25C23.1715 29.6998 22.5988 30.0456 21.9758 30.2667C21.3529 30.4879 20.6924 30.58 20.0337 30.5376C16.3922 30.5376 11.8162 28.1922 8.09004 24.4166C2.00687 18.2528 0.711534 11.2818 3.31997 8.63319C3.80854 8.18345 4.38129 7.83772 5.00423 7.61654C5.62717 7.39536 6.28762 7.30322 6.94637 7.3456C9.95739 7.54171 12.848 8.61692 15.2691 10.4414L16.8131 8.98624C13.964 6.7775 10.5265 5.48546 6.94501 5.27714C6.01734 5.23407 5.09054 5.37932 4.21905 5.70434C3.34757 6.02935 2.54899 6.52759 1.87023 7.16976C-1.91194 11.0049 0.223732 19.3825 6.6403 25.8856C10.9075 30.2094 15.9932 32.6143 20.0309 32.6143C20.9588 32.657 21.8857 32.5113 22.7572 32.1859C23.6287 31.8604 24.4272 31.3616 25.1057 30.7189C28.2757 27.5069 27.2755 21.1021 23.0944 15.2844L21.5968 16.698Z" fill="#2AB795"/>
    <path d="M9.99346 12.0931C10.9559 12.1378 11.8985 12.3864 12.7604 12.8227L13.1006 12.5001V12.4918L13.3958 12.2149L14.3604 11.3053C13.0261 10.5266 11.5264 10.085 9.98799 10.0177C9.46633 9.99229 8.94491 10.0729 8.45447 10.2548C7.96402 10.4367 7.51445 10.7162 7.13224 11.0769C4.93508 13.3031 6.3124 18.3109 10.2134 22.2623C12.3304 24.6423 15.2495 26.1338 18.3968 26.4436C18.9184 26.469 19.4398 26.3883 19.9303 26.2064C20.4207 26.0245 20.8703 25.745 21.2525 25.3844C22.8635 23.7521 22.5451 20.6258 20.7278 17.5162L19.1797 18.9769C20.3862 21.2447 20.5078 23.2038 19.8069 23.9141C19.4156 24.2471 18.91 24.4094 18.4009 24.3654C15.8038 24.0357 13.4117 22.7667 11.6646 20.792C11.4828 20.6078 11.3407 20.4237 11.1754 20.2382H11.1672V20.2299C8.20485 16.9278 7.61047 13.5385 8.58608 12.5431C8.97796 12.2103 9.48405 12.0485 9.99346 12.0931Z" fill="#2AB795"/>
</svg>
