<svg width="160" height="33" viewBox="0 0 160 33" fill="none" xmlns="http://www.w3.org/2000/svg">
<path d="M31.7997 0.978231C31.5264 0.682136 31.1981 0.4435 30.8337 0.275949C30.4693 0.108397 30.0759 0.015211 29.676 0.00171175C29.2761 -0.0117875 28.8774 0.0546641 28.5029 0.197272C28.1283 0.339881 27.7851 0.555853 27.4929 0.832857L14.3277 13.227L12.9968 18.5643L18.4897 17.7336L31.6563 5.34222C31.9485 5.06522 32.184 4.73262 32.3493 4.3634C32.5147 3.99417 32.6067 3.59557 32.62 3.19033C32.6333 2.7851 32.5677 2.38117 32.427 2.00162C32.2863 1.62206 32.0731 1.27432 31.7997 0.978231Z" fill="#F84530"/>
<path d="M21.5968 16.698C25.2861 21.9065 25.819 27.0624 23.6601 29.25C23.1715 29.6998 22.5988 30.0456 21.9758 30.2667C21.3529 30.4879 20.6924 30.58 20.0337 30.5376C16.3922 30.5376 11.8162 28.1922 8.09004 24.4166C2.00687 18.2528 0.711534 11.2818 3.31997 8.63319C3.80854 8.18345 4.38129 7.83772 5.00423 7.61654C5.62717 7.39536 6.28762 7.30322 6.94637 7.3456C9.95739 7.54171 12.848 8.61692 15.2691 10.4414L16.8131 8.98624C13.964 6.7775 10.5265 5.48546 6.94501 5.27714C6.01734 5.23407 5.09054 5.37932 4.21905 5.70434C3.34757 6.02935 2.54899 6.52759 1.87023 7.16976C-1.91194 11.0049 0.223732 19.3825 6.6403 25.8856C10.9075 30.2094 15.9932 32.6143 20.0309 32.6143C20.9588 32.657 21.8857 32.5113 22.7572 32.1859C23.6287 31.8604 24.4272 31.3616 25.1057 30.7189C28.2757 27.5069 27.2755 21.1021 23.0944 15.2844L21.5968 16.698Z" fill="#2AB795"/>
<path d="M9.99346 12.0931C10.9559 12.1378 11.8985 12.3864 12.7604 12.8227L13.1006 12.5001V12.4918L13.3958 12.2149L14.3604 11.3053C13.0261 10.5266 11.5264 10.085 9.98799 10.0177C9.46633 9.99229 8.94491 10.0729 8.45447 10.2548C7.96402 10.4367 7.51445 10.7162 7.13224 11.0769C4.93508 13.3031 6.3124 18.3109 10.2134 22.2623C12.3304 24.6423 15.2495 26.1338 18.3968 26.4436C18.9184 26.469 19.4398 26.3883 19.9303 26.2064C20.4207 26.0245 20.8703 25.745 21.2525 25.3844C22.8635 23.7521 22.5451 20.6258 20.7278 17.5162L19.1797 18.9769C20.3862 21.2447 20.5078 23.2038 19.8069 23.9141C19.4156 24.2471 18.91 24.4094 18.4009 24.3654C15.8038 24.0357 13.4117 22.7667 11.6646 20.792C11.4828 20.6078 11.3407 20.4237 11.1754 20.2382H11.1672V20.2299C8.20485 16.9278 7.61047 13.5385 8.58608 12.5431C8.97796 12.2103 9.48405 12.0485 9.99346 12.0931Z" fill="#2AB795"/>
<path d="M41.4318 25.3108C40.7675 25.3108 40.4353 24.9787 40.4353 24.3144V10.2218C40.4353 9.55753 40.7675 9.22539 41.4318 9.22539C41.7718 9.22539 42.104 9.42309 42.4282 9.8185L51.9656 22.108H51.4674V10.2218C51.4674 9.55753 51.7995 9.22539 52.4638 9.22539C53.1281 9.22539 53.4603 9.55753 53.4603 10.2218V24.3144C53.4603 24.9787 53.1281 25.3108 52.4638 25.3108C52.1079 25.3108 51.7758 25.1131 51.4674 24.7177L41.93 12.4282H42.4282V24.3144C42.4282 24.9787 42.0961 25.3108 41.4318 25.3108ZM62.4718 25.3108C60.898 25.3108 59.7276 24.9312 58.9605 24.172C58.2013 23.4128 57.8217 22.2503 57.8217 20.6845V17.9324C57.8217 16.3428 58.2013 15.1724 58.9605 14.4211C59.7276 13.6619 60.898 13.2823 62.4718 13.2823H64.4172C65.9989 13.2823 67.1693 13.6619 67.9285 14.4211C68.6877 15.1803 69.0673 16.3507 69.0673 17.9324V20.6607C69.0673 22.2345 68.6877 23.4049 67.9285 24.172C67.1693 24.9312 65.9989 25.3108 64.4172 25.3108H62.4718ZM59.8146 20.6845C59.8146 21.7046 60.0005 22.4006 60.3721 22.7723C60.7438 23.136 61.4437 23.3179 62.4718 23.3179H64.4172C65.4532 23.3179 66.1531 23.1321 66.5169 22.7604C66.8886 22.3887 67.0744 21.6888 67.0744 20.6607V17.9324C67.0744 16.8964 66.8886 16.1965 66.5169 15.8327C66.1531 15.4611 65.4532 15.2752 64.4172 15.2752H62.4718C61.7838 15.2752 61.246 15.3543 60.8585 15.5125C60.4789 15.6627 60.21 15.9316 60.0519 16.3191C59.8937 16.6987 59.8146 17.2365 59.8146 17.9324V20.6845ZM78.0414 25.3108C76.4755 25.3108 75.3209 24.9391 74.5776 24.1957C73.8342 23.4524 73.4625 22.3057 73.4625 20.7556V15.2752H72.3C71.6357 15.2752 71.3035 14.9431 71.3035 14.2788C71.3035 13.6145 71.6357 13.2823 72.3 13.2823H73.4625V11.5504C73.4625 10.8861 73.7946 10.554 74.4589 10.554C75.1232 10.554 75.4554 10.8861 75.4554 11.5504V13.2823H78.1837C78.848 13.2823 79.1802 13.6145 79.1802 14.2788C79.1802 14.9431 78.848 15.2752 78.1837 15.2752H75.4554V20.7556C75.4554 21.76 75.6373 22.4401 76.001 22.796C76.3648 23.1439 77.0449 23.3179 78.0414 23.3179C78.3498 23.3179 78.591 23.397 78.765 23.5552C78.9469 23.7133 79.0378 23.9664 79.0378 24.3144C79.0378 24.9787 78.7057 25.3108 78.0414 25.3108ZM87.9808 25.3108C86.4149 25.3108 85.2603 24.9391 84.517 24.1957C83.7736 23.4524 83.4019 22.3057 83.4019 20.7556V15.2752H82.2394C81.5751 15.2752 81.2429 14.9431 81.2429 14.2788C81.2429 13.6145 81.5751 13.2823 82.2394 13.2823H83.4019V11.5504C83.4019 10.8861 83.734 10.554 84.3983 10.554C85.0626 10.554 85.3948 10.8861 85.3948 11.5504V13.2823H88.1231C88.7874 13.2823 89.1196 13.6145 89.1196 14.2788C89.1196 14.9431 88.7874 15.2752 88.1231 15.2752H85.3948V20.7556C85.3948 21.76 85.5767 22.4401 85.9404 22.796C86.3042 23.1439 86.9843 23.3179 87.9808 23.3179C88.2892 23.3179 88.5304 23.397 88.7044 23.5552C88.8863 23.7133 88.9772 23.9664 88.9772 24.3144C88.9772 24.9787 88.6451 25.3108 87.9808 25.3108ZM93.3166 20.1151V20.6845C93.3166 21.7046 93.5025 22.4006 93.8742 22.7723C94.2459 23.136 94.9457 23.3179 95.9738 23.3179H97.9193C98.7259 23.3179 99.323 23.2428 99.7105 23.0925C100.098 22.9423 100.355 22.6774 100.482 22.2978C100.569 21.9972 100.687 21.7679 100.837 21.6097C100.996 21.4516 101.233 21.3725 101.549 21.3725C101.881 21.3725 102.134 21.4595 102.308 21.6335C102.482 21.8074 102.538 22.0605 102.474 22.3927C102.3 23.3733 101.834 24.1048 101.075 24.5872C100.315 25.0696 99.2637 25.3108 97.9193 25.3108H95.9738C94.4001 25.3108 93.2296 24.9312 92.4625 24.172C91.7034 23.4128 91.3238 22.2503 91.3238 20.6845V17.9324C91.3238 16.327 91.7034 15.1487 92.4625 14.3974C93.2296 13.6382 94.4001 13.2665 95.9738 13.2823H97.9193C99.5009 13.2823 100.671 13.6619 101.431 14.4211C102.19 15.1724 102.569 16.3428 102.569 17.9324V19.1186C102.569 19.7829 102.237 20.1151 101.573 20.1151H93.3166ZM95.9738 15.2752C94.9457 15.2594 94.2459 15.4373 93.8742 15.809C93.5025 16.1807 93.3166 16.8885 93.3166 17.9324V18.1222H100.576V17.9324C100.576 16.8964 100.391 16.1965 100.019 15.8327C99.6551 15.4611 98.9552 15.2752 97.9193 15.2752H95.9738ZM107.926 25.3108C107.262 25.3108 106.93 24.9787 106.93 24.3144V14.2788C106.93 13.6145 107.262 13.2823 107.926 13.2823C108.59 13.2823 108.923 13.6145 108.923 14.2788V15.204C109.389 14.5714 109.982 14.0929 110.702 13.7687C111.429 13.4444 112.26 13.2823 113.193 13.2823C113.857 13.2823 114.189 13.6145 114.189 14.2788C114.189 14.9431 113.857 15.2752 113.193 15.2752C111.825 15.2752 110.781 15.5283 110.061 16.0344C109.342 16.5405 108.962 17.2088 108.923 18.0392V24.3144C108.923 24.9787 108.59 25.3108 107.926 25.3108ZM121.135 25.3345C120.993 25.3345 120.874 25.2871 120.779 25.1922C120.684 25.0973 120.637 24.9787 120.637 24.8363V11.2657H115.441C115.299 11.2657 115.18 11.2183 115.085 11.1234C114.99 11.0285 114.943 10.9098 114.943 10.7675C114.943 10.6251 114.99 10.5065 115.085 10.4116C115.18 10.3167 115.299 10.2693 115.441 10.2693H126.829C126.971 10.2693 127.09 10.3167 127.185 10.4116C127.28 10.5065 127.327 10.6251 127.327 10.7675C127.327 10.9098 127.28 11.0285 127.185 11.1234C127.09 11.2183 126.971 11.2657 126.829 11.2657H121.633V24.8363C121.633 24.9787 121.586 25.0973 121.491 25.1922C121.396 25.2871 121.277 25.3345 121.135 25.3345ZM127.954 20.21V21.1827C127.954 22.3294 128.187 23.14 128.654 23.6145C129.128 24.0811 129.947 24.3144 131.109 24.3144H133.055C134.122 24.3144 134.893 24.1681 135.368 23.8755C135.842 23.5829 136.115 23.0807 136.186 22.3689C136.202 22.2029 136.25 22.0803 136.329 22.0012C136.416 21.9142 136.542 21.8707 136.708 21.8707C136.866 21.8707 136.989 21.9182 137.076 22.0131C137.163 22.1001 137.199 22.2266 137.183 22.3927C137.104 23.397 136.728 24.1364 136.056 24.6109C135.384 25.0775 134.383 25.3108 133.055 25.3108H131.109C129.662 25.3108 128.606 24.9826 127.942 24.3262C127.286 23.6619 126.957 22.6141 126.957 21.1827V18.5255C126.957 17.0625 127.286 16.0028 127.942 15.3464C128.606 14.6821 129.662 14.3579 131.109 14.3737H133.055C134.502 14.3737 135.554 14.7058 136.21 15.3701C136.874 16.0265 137.206 17.0783 137.206 18.5255V19.7118C137.206 20.0439 137.04 20.21 136.708 20.21H127.954ZM131.109 15.3701C129.947 15.3543 129.128 15.5836 128.654 16.0581C128.187 16.5247 127.954 17.3472 127.954 18.5255V19.2135H136.21V18.5255C136.21 17.363 135.973 16.5484 135.498 16.0819C135.032 15.6074 134.217 15.3701 133.055 15.3701H131.109ZM143.56 25.2871C142.603 25.2871 141.879 25.0815 141.389 24.6702C140.899 24.2511 140.61 23.6105 140.523 22.7485C140.515 22.5825 140.555 22.4559 140.642 22.3689C140.729 22.274 140.855 22.2266 141.021 22.2266C141.179 22.2266 141.298 22.2701 141.377 22.3571C141.464 22.4362 141.512 22.5587 141.52 22.7248C141.583 23.3021 141.769 23.7094 142.077 23.9466C142.393 24.176 142.888 24.2906 143.56 24.2906H147.451C148.234 24.2906 148.771 24.1404 149.064 23.8399C149.365 23.5314 149.515 22.9937 149.515 22.2266C149.515 21.4516 149.365 20.9138 149.064 20.6133C148.771 20.3128 148.234 20.1625 147.451 20.1625H143.607C142.611 20.1625 141.875 19.9292 141.401 19.4626C140.926 18.9961 140.689 18.2645 140.689 17.2681C140.689 16.2558 140.926 15.5164 141.401 15.0498C141.875 14.5832 142.611 14.3499 143.607 14.3499H147.332C149.104 14.3499 150.06 15.1408 150.203 16.7224C150.227 16.8885 150.195 17.019 150.108 17.1139C150.021 17.2009 149.894 17.2444 149.728 17.2444C149.562 17.2444 149.44 17.2048 149.361 17.1257C149.281 17.0388 149.23 16.9122 149.206 16.7462C149.159 16.2242 148.993 15.8604 148.708 15.6548C148.423 15.4492 147.965 15.3464 147.332 15.3464H143.607C142.888 15.3464 142.385 15.4848 142.101 15.7616C141.824 16.0384 141.686 16.5405 141.686 17.2681C141.686 17.9798 141.824 18.4741 142.101 18.7509C142.385 19.0277 142.888 19.1661 143.607 19.1661H147.451C148.51 19.1661 149.285 19.4112 149.776 19.9016C150.266 20.3919 150.511 21.1669 150.511 22.2266C150.511 23.2784 150.266 24.0534 149.776 24.5516C149.285 25.0419 148.51 25.2871 147.451 25.2871H143.56ZM158.483 25.3108C157.06 25.3108 156.024 24.9866 155.375 24.3381C154.727 23.6896 154.402 22.6615 154.402 21.2539V15.3701H152.908C152.576 15.3701 152.41 15.204 152.41 14.8719C152.41 14.5397 152.576 14.3737 152.908 14.3737H154.402V11.5504C154.402 11.2183 154.569 11.0522 154.901 11.0522C155.233 11.0522 155.399 11.2183 155.399 11.5504V14.3737H158.459C158.792 14.3737 158.958 14.5397 158.958 14.8719C158.958 15.204 158.792 15.3701 158.459 15.3701H155.399V21.2539C155.399 22.3927 155.624 23.1874 156.075 23.6382C156.534 24.089 157.336 24.3144 158.483 24.3144C158.689 24.3144 158.827 24.3579 158.898 24.4449C158.969 24.5318 159.005 24.6544 159.005 24.8126C159.005 25.1447 158.831 25.3108 158.483 25.3108Z" fill="#141417"/>
</svg>
