<svg width="48" height="48" viewBox="0 0 48 48" fill="none" xmlns="http://www.w3.org/2000/svg">

<path fill-rule="evenodd" clip-rule="evenodd" d="M35.6778 18.0157C35.8534 17.4303 35.6778 17 34.8421 17H32.0789C31.3763 17 31.0526 17.3716 30.877 17.7816C30.877 17.7816 29.4717 21.2065 27.4811 23.4313C26.837 24.0753 26.5443 24.2799 26.193 24.2799C26.0174 24.2799 25.7632 24.0753 25.7632 23.4899V18.0157C25.7632 17.313 25.5593 17 24.9737 17H20.6316C20.1926 17 19.9286 17.3261 19.9286 17.6351C19.9286 18.3013 20.9237 18.4548 21.0263 20.3282V24.3974C21.0263 25.2895 20.8653 25.4513 20.5139 25.4513C19.5772 25.4513 17.2988 22.0108 15.9472 18.0743C15.6824 17.3091 15.4167 17 14.7105 17H11.9474C11.1579 17 11 17.3716 11 17.7816C11 18.5134 11.9369 22.1434 15.3618 26.9442C17.6454 30.2225 20.8621 32 23.7895 32C25.5461 32 25.7632 31.6053 25.7632 30.9253V28.4474C25.7632 27.6579 25.9295 27.5004 26.4855 27.5004C26.8957 27.5004 27.5981 27.7053 29.2376 29.286C31.1111 31.1592 31.4197 32 32.4737 32H35.2368C36.0263 32 36.4211 31.6053 36.1933 30.8262C35.9442 30.0498 35.0497 28.9236 33.8628 27.5882C33.2188 26.827 32.2526 26.0073 31.9601 25.5976C31.5502 25.0706 31.6672 24.8365 31.9601 24.3684C31.9601 24.3684 35.3264 19.6258 35.6778 18.0157Z" fill="#5181B8"/>
</svg>
