<svg width="48" height="48" viewBox="0 0 48 48" fill="none" xmlns="http://www.w3.org/2000/svg">

<path d="M17.3189 26.5035L16.4835 29.6222L13.4301 29.6868C12.5176 27.9943 12 26.0578 12 24C12 22.0101 12.4839 20.1336 13.3418 18.4813L16.0608 18.9797L17.2516 21.6817C17.0024 22.4084 16.8665 23.1884 16.8665 24C16.8666 24.8809 17.0262 25.7249 17.3189 26.5035Z" fill="#FBBB00"/>
<path d="M35.7903 21.7582C35.9282 22.4842 36 23.2338 36 24C36 24.8591 35.9097 25.6972 35.7376 26.5055C35.1535 29.2563 33.6271 31.6583 31.5126 33.358L28.088 33.1827L27.6034 30.1576C29.0065 29.3348 30.103 28.047 30.6805 26.5055H24.2638V21.7582H30.7742H35.7903Z" fill="#518EF8"/>
<path d="M31.5119 33.3574C29.4555 35.0104 26.8437 36 24 36C19.4301 36 15.4569 33.4457 13.4301 29.6868L17.3189 26.5035C18.3323 29.2081 20.9413 31.1334 24 31.1334C25.3147 31.1334 26.5464 30.778 27.6033 30.1576L31.5119 33.3574Z" fill="#28B446"/>
<path d="M31.6596 14.7626L27.7721 17.9453C26.6783 17.2615 25.3853 16.8666 24 16.8666C20.8721 16.8666 18.2143 18.8802 17.2517 21.6818L13.3424 18.4813C15.3395 14.6308 19.3622 12 24 12C26.9117 12 29.5813 13.0372 31.6596 14.7626Z" fill="#F14336"/>
</svg>
