<svg width="48" height="48" viewBox="0 0 48 48" fill="none" xmlns="http://www.w3.org/2000/svg">
<path d="M29.1015 12H25.4651C21.8918 12 18.8615 14.7198 18.8615 20.0003C18.8615 23.1682 20.329 25.5038 22.9445 26.6559L18.064 35.4881C17.9042 35.7766 18.064 36 18.319 36H20.584C20.7753 36 20.9034 35.9363 20.9672 35.7766L25.4011 27.1042H26.9962V35.7766C26.9962 35.8719 27.0915 36 27.2192 36H29.1973C29.3887 36 29.4524 35.9041 29.4524 35.7449V12.3199C29.4525 12.0959 29.3251 12 29.1015 12ZM26.9961 25.0563H25.6563C23.5511 25.0563 21.5097 23.5203 21.5097 19.6803C21.5097 15.6797 23.4236 14.0479 25.3691 14.0479H26.9962L26.9961 25.0563Z" fill="#FF0000"/>
</svg>
